999
dxflib 3.7.5.0
  0
SECTION
  2
HEADER
  9
$ACADVER
  1
AC1015
  9
$HANDSEED
  5
FFFF
  9
$INSUNITS
 70
1
  9
$DIMEXE
 40
1.25
  9
$TEXTSTYLE
  7
Standard
  9
$LIMMIN
 10
0.0
 20
0.0
  0
ENDSEC
  0
SECTION
  2
TABLES
  0
TABLE
  2
VPORT
  5
8
100
AcDbSymbolTable
 70
1
  0
VPORT
  5
30
100
AcDbSymbolTableRecord
100
AcDbViewportTableRecord
  2
*Active
 70
0
 10
0.0
 20
0.0
 11
1.0
 21
1.0
 12
4.4156419370100002
 22
2.2759285562199998
 13
0.0
 23
0.0
 14
10.0
 24
10.0
 15
10.0
 25
10.0
 16
0.0
 26
0.0
 36
1.0
 17
0.0
 27
0.0
 37
0.0
 40
9.2626319295599995
 41
1.92798353909465
 42
50.0
 43
0.0
 44
0.0
 50
0.0
 51
0.0
 71
0
 72
100
 73
1
 74
3
 75
1
 76
1
 77
0
 78
0
281
0
 65
1
110
0.0
120
0.0
130
0.0
111
1.0
121
0.0
131
0.0
112
0.0
122
1.0
132
0.0
 79
0
146
0.0
  0
ENDTAB
  0
TABLE
  2
LTYPE
  5
5
100
AcDbSymbolTable
 70
25
  0
LTYPE
  5
16
100
AcDbSymbolTableRecord
100
AcDbLinetypeTableRecord
  2
CONTINUOUS
 70
0
  3
Solid line
 72
65
 73
0
 40
0.0
  0
ENDTAB
  0
TABLE
  2
LAYER
  5
2
100
AcDbSymbolTable
 70
3
  0
LAYER
  5
10
100
AcDbSymbolTableRecord
100
AcDbLayerTableRecord
  2
0
 70
0
 62
250
  6
CONTINUOUS
370
100
390
F
  0
ENDTAB
  0
TABLE
  2
STYLE
  5
3
100
AcDbSymbolTable
 70
1
  5
31
100
AcDbSymbolTableRecord
100
AcDbTextStyleTableRecord
  2
standard
 70
0
 40
2.5
 41
1.0
 50
0.0
 71
0
 42
2.5
  3

  4

1001
ACAD
1000
standard
1071
0
  0
ENDTAB
  0
TABLE
  2
VIEW
  5
6
100
AcDbSymbolTable
 70
0
  0
ENDTAB
  0
TABLE
  2
UCS
  5
7
100
AcDbSymbolTable
 70
0
  0
ENDTAB
  0
TABLE
  2
APPID
  5
9
100
AcDbSymbolTable
 70
1
  0
APPID
  5
12
100
AcDbSymbolTableRecord
100
AcDbRegAppTableRecord
  2
ACAD
 70
0
  0
ENDTAB
  0
TABLE
  2
DIMSTYLE
  5
A
100
AcDbSymbolTable
 70
1
100
AcDbDimStyleTable
 71
0
  0
DIMSTYLE
105
27
100
AcDbSymbolTableRecord
100
AcDbDimStyleTableRecord
  2
Standard
 41
1.0
 42
1.0
 43
3.75
 44
1.0
 70
0
 73
0
 74
0
 77
1
 78
8
140
1.0
141
2.5
143
0.03937007874016
147
1.0
171
3
172
1
271
2
272
2
274
3
278
44
283
0
284
8
340
CDCDCDCD
  0
ENDTAB
  0
TABLE
  2
BLOCK_RECORD
  5
1
100
AcDbSymbolTable
 70
1
  0
BLOCK_RECORD
  5
1F
100
AcDbSymbolTableRecord
100
AcDbBlockTableRecord
  2
*Model_Space
340
22
  0
BLOCK_RECORD
  5
1B
100
AcDbSymbolTableRecord
100
AcDbBlockTableRecord
  2
*Paper_Space
340
1E
  0
BLOCK_RECORD
  5
23
100
AcDbSymbolTableRecord
100
AcDbBlockTableRecord
  2
*Paper_Space0
340
26
  0
BLOCK_RECORD
  5
32
100
AcDbSymbolTableRecord
100
AcDbBlockTableRecord
  2
myblock1
340
0
  0
BLOCK_RECORD
  5
33
100
AcDbSymbolTableRecord
100
AcDbBlockTableRecord
  2
myblock2
340
0
  0
ENDTAB
  0
ENDSEC
  0
SECTION
  2
BLOCKS
  0
BLOCK
  5
20
100
AcDbEntity
  8
0
100
AcDbBlockBegin
  2
*Model_Space
 70
0
 10
0.0
 20
0.0
 30
0.0
  3
*Model_Space
  1

  0
ENDBLK
  5
21
100
AcDbEntity
  8
0
100
AcDbBlockEnd
  0
BLOCK
  5
1C
100
AcDbEntity
 67
1
  8
0
100
AcDbBlockBegin
  2
*Paper_Space
 70
0
 10
0.0
 20
0.0
 30
0.0
  3
*Paper_Space
  1

  0
ENDBLK
  5
1D
100
AcDbEntity
 67
1
  8
0
100
AcDbBlockEnd
  0
BLOCK
  5
34
100
AcDbEntity
  8
0
100
AcDbBlockBegin
  2
myblock1
 70
0
 10
0.0
 20
0.0
 30
0.0
  3
myblock1
  1

  0
ENDBLK
  5
35
100
AcDbEntity
  8
0
100
AcDbBlockEnd
  0
BLOCK
  5
36
100
AcDbEntity
  8
0
100
AcDbBlockBegin
  2
myblock2
 70
0
 10
0.0
 20
0.0
 30
0.0
  3
myblock2
  1

  0
ENDBLK
  5
37
100
AcDbEntity
  8
0
100
AcDbBlockEnd
  0
ENDSEC
  0
SECTION
  2
ENTITIES
  0
LINE
  5
38
100
AcDbEntity
100
AcDbLine
  8
mainlayer
 62
256
370
1
 48
2.0
  6
BYLAYER
 10
0.541265877365274
 20
-0.3125000000000003
 30
0.0
 11
0.6103482610120301
 21
-0.352384732794716
 31
0.0
  0
LWPOLYLINE
  5
39
  8
mainlayer
 62
256
370
1
 48
2.0
  6
BYLAYER
100
AcDbEntity
100
AcDbPolyline
 90
13
 70
0
 10
0.6103482610120301
 20
-0.352384732794716
 30
0.0
 10
0.6115216726155048
 20
-0.3529996859397457
 30
0.0
 10
0.6151370157509547
 20
-0.3546499547151619
 30
0.0
 10
0.6213165429874546
 20
-0.3570344038893594
 30
0.0
 10
0.6301545402818812
 20
-0.3598413686422393
 30
0.0
 10
0.6417165308887841
 20
-0.3627509637913485
 30
0.0
 10
0.6560386579328494
 20
-0.365437448844635
 30
0.0
 10
0.6731272493597057
 20
-0.3675716356200371
 30
0.0
 10
0.6929585680248965
 20
-0.3688233249348566
 30
0.0
 10
0.7154787487103005
 20
-0.3688637586980428
 30
0.0
 10
0.7406039228768279
 20
-0.3673680736370111
 30
0.0
 10
0.7682205309765784
 20
-0.3640177428579686
 30
0.0
 10
0.7981858211615658
 20
-0.3585029914751579
 30
0.0
  0
ARC
  5
3A
100
AcDbEntity
  8
mainlayer
 62
256
370
1
 48
1.0
  6
BYLAYER
100
AcDbCircle
 10
0.0
 20
0.0
 30
0.0
 40
0.8750000000000001
100
AcDbArc
 50
335.8128973224727929
 51
340.7024016180964736
  0
LWPOLYLINE
  5
3B
  8
mainlayer
 62
256
370
1
 48
2.0
  6
BYLAYER
100
AcDbEntity
100
AcDbPolyline
 90
13
 70
0
 10
0.8258379540623755
 20
-0.2891654779361984
 30
0.0
 10
0.807891429704155
 20
-0.2645432651569921
 30
0.0
 10
0.7901595412159936
 20
-0.2431077364742742
 30
0.0
 10
0.7729590383172744
 20
-0.2247323684308505
 30
0.0
 10
0.7565915128056209
 20
-0.2092641984803418
 30
0.0
 10
0.741341374373212
 20
-0.1965252344748369
 30
0.0
 10
0.7274739438198887
 20
-0.1863140112378748
 30
0.0
 10
0.7152336739790497
 20
-0.1784072850360056
 30
0.0
 10
0.7048425079819581
 20
-0.1725618560571605
 30
0.0
 10
0.6964983837484586
 20
-0.1685165083494686
 30
0.0
 10
0.6903738928108878
 20
-0.1659940560730939
 30
0.0
 10
0.6866151007569066
 20
-0.1647034843729988
 30
0.0
 10
0.6853405357201245
 20
-0.1643421726948543
 30
0.0
  0
LINE
  5
3C
100
AcDbEntity
100
AcDbLine
  8
mainlayer
 62
256
370
1
 48
2.0
  6
BYLAYER
 10
0.6853405357201245
 20
-0.1643421726948543
 30
0.0
 11
0.607770137241742
 21
-0.1457410727185514
 31
0.0
  0
ARC
  5
3D
100
AcDbEntity
  8
mainlayer
 62
256
370
1
 48
1.0
  6
BYLAYER
100
AcDbCircle
 10
0.0
 20
0.0
 30
0.0
 40
0.625
100
AcDbArc
 50
346.5152989405692665
 51
359.9999999999999432
  0
LINE
  5
3E
100
AcDbEntity
100
AcDbLine
  8
mainlayer
 62
256
370
1
 48
2.0
  6
BYLAYER
 10
0.3125000000000001
 20
-0.5412658773652741
 30
0.0
 11
0.3523847327947157
 21
-0.6103482610120302
 31
0.0
  0
LWPOLYLINE
  5
3F
  8
mainlayer
 62
256
370
1
 48
2.0
  6
BYLAYER
100
AcDbEntity
100
AcDbPolyline
 90
13
 70
0
 10
0.3523847327947157
 20
-0.6103482610120302
 30
0.0
 10
0.3530934604799054
 20
-0.6114675318595005
 30
0.0
 10
0.3553993050908946
 20
-0.6147043781098082
 30
0.0
 10
0.3595587080739826
 20
-0.6198591352869459
 30
0.0
 10
0.3658091558730941
 20
-0.6267090367176806
 30
0.0
 10
0.3743673358824346
 20
-0.6350098153349887
 30
0.0
 10
0.3854274192121801
 20
-0.6444974431600546
 30
0.0
 10
0.3991594801150294
 20
-0.6548899988374017
 30
0.0
 10
0.4157080612122196
 20
-0.6658896529142765
 30
0.0
 10
0.435190892902002
 20
-0.6771847599230683
 30
0.0
 10
0.457697774535239
 20
-0.6884520457474175
 30
0.0
 10
0.4832896241055033
 20
-0.6993588782315611
 30
0.0
 10
0.5119977023288802
 20
-0.7095656085309853
 30
0.0
  0
ARC
  5
40
100
AcDbEntity
  8
mainlayer
 62
256
370
1
 48
1.0
  6
BYLAYER
100
AcDbCircle
 10
0.0
 20
0.0
 30
0.0
 40
0.8750000000000001
100
AcDbArc
 50
305.8128973224727929
 51
310.7024016180964736
  0
LWPOLYLINE
  5
41
  8
mainlayer
 62
256
370
1
 48
2.0
  6
BYLAYER
100
AcDbEntity
100
AcDbPolyline
 90
13
 70
0
 10
0.5706139086592846
 20
-0.6633436268214038
 30
0.0
 10
0.5673828690450327
 20
-0.633046902878115
 30
0.0
 10
0.562744367498571
 20
-0.6056172462512507
 30
0.0
 10
0.5570359790521241
 20
-0.5811034592723974
 30
0.0
 10
0.5505953711371967
 20
-0.5595238683893751
 30
0.0
 10
0.5437578458462535
 20
-0.5408665327265078
 30
0.0
 10
0.53685391032034
 20
-0.5250896387229229
 30
0.0
 10
0.5302068887899316
 20
-0.5121220780509167
 30
0.0
 10
0.5241305895509318
 20
-0.5018642050606732
 30
0.0
 10
0.5189270398462339
 20
-0.4941887690619213
 30
0.0
 10
0.5148843012472372
 20
-0.4889420158419615
 30
0.0
 10
0.5122743776909939
 20
-0.4859449519372833
 30
0.0
 10
0.5113512278294375
 20
-0.4849947643269351
 30
0.0
  0
LINE
  5
42
100
AcDbEntity
100
AcDbLine
  8
mainlayer
 62
256
370
1
 48
2.0
  6
BYLAYER
 10
0.5113512278294375
 20
-0.4849947643269351
 30
0.0
 11
0.4534738421536278
 21
-0.4301005399699314
 31
0.0
  0
ARC
  5
43
100
AcDbEntity
  8
mainlayer
 62
256
370
1
 48
1.0
  6
BYLAYER
100
AcDbCircle
 10
0.0
 20
0.0
 30
0.0
 40
0.625
100
AcDbArc
 50
316.5152989405692665
 51
330.0
  0
LINE
  5
44
100
AcDbEntity
100
AcDbLine
  8
mainlayer
 62
256
370
1
 48
2.0
  6
BYLAYER
 10
-0.0000000000000001
 20
-0.625
 30
0.0
 11
-0.0000000000000001
 21
-0.7047694655894313
 31
0.0
  0
LWPOLYLINE
  5
45
  8
mainlayer
 62
256
370
1
 48
2.0
  6
BYLAYER
100
AcDbEntity
100
AcDbPolyline
 90
13
 70
0
 10
-0.0000000000000001
 20
-0.7047694655894313
 30
0.0
 10
0.0000541407560043
 20
-0.7060931464196507
 30
0.0
 10
0.0004326376411466
 20
-0.7100492598060562
 30
0.0
 10
0.0014574077005087
 20
-0.7165931119633416
 30
0.0
 10
0.0034455035642005
 20
-0.7256505245153331
 30
0.0
 10
0.0067067155537955
 20
-0.7371182996737827
 30
0.0
 10
0.0115412147727948
 20
-0.7508648680568146
 30
0.0
 10
0.0182372505223039
 20
-0.7667311157350661
 30
0.0
 10
0.0270689151106201
 20
-0.7845313861470757
 30
0.0
 10
0.0382939887872323
 20
-0.8040546516000443
 30
0.0
 10
0.0521518771294103
 20
-0.8250658481722496
 30
0.0
 10
0.0688616527450173
 20
-0.8473073669634714
 30
0.0
 10
0.0886202126305803
 20
-0.8705006938040376
 30
0.0
  0
ARC
  5
46
100
AcDbEntity
  8
mainlayer
 62
256
370
1
 48
1.0
  6
BYLAYER
100
AcDbCircle
 10
0.0
 20
0.0
 30
0.0
 40
0.8750000000000001
100
AcDbArc
 50
275.8128973224727361
 51
280.7024016180964736
  0
LWPOLYLINE
  5
47
  8
mainlayer
 62
256
370
1
 48
2.0
  6
BYLAYER
100
AcDbEntity
100
AcDbPolyline
 90
13
 70
0
 10
0.1624943272409716
 20
-0.8597793865954825
 30
0.0
 10
0.1748445268260399
 20
-0.8319261342020242
 30
0.0
 10
0.1845422949647429
 20
-0.8058521039728447
 30
0.0
 10
0.191855579044877
 20
-0.7817683474829741
 30
0.0
 10
0.1970676444162458
 20
-0.759859569617538
 30
0.0
 10
0.2004748416467042
 20
-0.74028308032109
 30
0.0
 10
0.2023843050969656
 20
-0.7231679215582144
 30
0.0
 10
0.2031115959281329
 20
-0.7086141738259367
 30
0.0
 10
0.2029783029212847
 20
-0.6966924456080918
 30
0.0
 10
0.2023096146865373
 20
-0.6874435481957021
 30
0.0
 10
0.2014318769689262
 20
-0.6808783573203308
 30
0.0
 10
0.2006701488196233
 20
-0.6769778620639924
 30
0.0
 10
0.2003457713931894
 20
-0.6756934005242914
 30
0.0
  0
LINE
  5
48
100
AcDbEntity
100
AcDbLine
  8
mainlayer
 62
256
370
1
 48
2.0
  6
BYLAYER
 10
0.2003457713931894
 20
-0.6756934005242914
 30
0.0
 11
0.1776695972718105
 21
-0.5992149148721789
 31
0.0
  0
ARC
  5
49
100
AcDbEntity
  8
mainlayer
 62
256
370
1
 48
1.0
  6
BYLAYER
100
AcDbCircle
 10
0.0
 20
0.0
 30
0.0
 40
0.625
100
AcDbArc
 50
286.5152989405692665
 51
299.9999999999999432
  0
LINE
  5
4A
100
AcDbEntity
100
AcDbLine
  8
mainlayer
 62
256
370
1
 48
2.0
  6
BYLAYER
 10
-0.3125000000000003
 20
-0.541265877365274
 30
0.0
 11
-0.352384732794716
 21
-0.6103482610120301
 31
0.0
  0
LWPOLYLINE
  5
4B
  8
mainlayer
 62
256
370
1
 48
2.0
  6
BYLAYER
100
AcDbEntity
100
AcDbPolyline
 90
13
 70
0
 10
-0.352384732794716
 20
-0.6103482610120301
 30
0.0
 10
-0.3529996859397457
 20
-0.6115216726155048
 30
0.0
 10
-0.3546499547151619
 20
-0.6151370157509547
 30
0.0
 10
-0.3570344038893594
 20
-0.6213165429874546
 30
0.0
 10
-0.3598413686422393
 20
-0.6301545402818812
 30
0.0
 10
-0.3627509637913485
 20
-0.6417165308887841
 30
0.0
 10
-0.365437448844635
 20
-0.6560386579328494
 30
0.0
 10
-0.3675716356200371
 20
-0.6731272493597057
 30
0.0
 10
-0.3688233249348566
 20
-0.6929585680248965
 30
0.0
 10
-0.3688637586980428
 20
-0.7154787487103005
 30
0.0
 10
-0.3673680736370111
 20
-0.7406039228768279
 30
0.0
 10
-0.3640177428579686
 20
-0.7682205309765784
 30
0.0
 10
-0.3585029914751579
 20
-0.7981858211615658
 30
0.0
  0
ARC
  5
4C
100
AcDbEntity
  8
mainlayer
 62
256
370
1
 48
1.0
  6
BYLAYER
100
AcDbCircle
 10
0.0
 20
0.0
 30
0.0
 40
0.8750000000000001
100
AcDbArc
 50
245.8128973224727929
 51
250.7024016180964452
  0
LWPOLYLINE
  5
4D
  8
mainlayer
 62
256
370
1
 48
2.0
  6
BYLAYER
100
AcDbEntity
100
AcDbPolyline
 90
13
 70
0
 10
-0.2891654779361984
 20
-0.8258379540623755
 30
0.0
 10
-0.2645432651569921
 20
-0.807891429704155
 30
0.0
 10
-0.2431077364742742
 20
-0.7901595412159936
 30
0.0
 10
-0.2247323684308505
 20
-0.7729590383172744
 30
0.0
 10
-0.2092641984803418
 20
-0.7565915128056209
 30
0.0
 10
-0.1965252344748369
 20
-0.741341374373212
 30
0.0
 10
-0.1863140112378748
 20
-0.7274739438198887
 30
0.0
 10
-0.1784072850360056
 20
-0.7152336739790497
 30
0.0
 10
-0.1725618560571605
 20
-0.7048425079819581
 30
0.0
 10
-0.1685165083494686
 20
-0.6964983837484586
 30
0.0
 10
-0.1659940560730939
 20
-0.6903738928108878
 30
0.0
 10
-0.1647034843729988
 20
-0.6866151007569066
 30
0.0
 10
-0.1643421726948543
 20
-0.6853405357201245
 30
0.0
  0
LINE
  5
4E
100
AcDbEntity
100
AcDbLine
  8
mainlayer
 62
256
370
1
 48
2.0
  6
BYLAYER
 10
-0.1643421726948543
 20
-0.6853405357201245
 30
0.0
 11
-0.1457410727185514
 21
-0.607770137241742
 31
0.0
  0
ARC
  5
4F
100
AcDbEntity
  8
mainlayer
 62
256
370
1
 48
1.0
  6
BYLAYER
100
AcDbCircle
 10
0.0
 20
0.0
 30
0.0
 40
0.625
100
AcDbArc
 50
256.5152989405692665
 51
269.9999999999999432
  0
LINE
  5
50
100
AcDbEntity
100
AcDbLine
  8
mainlayer
 62
256
370
1
 48
2.0
  6
BYLAYER
 10
-0.5412658773652741
 20
-0.3125000000000001
 30
0.0
 11
-0.6103482610120302
 21
-0.3523847327947157
 31
0.0
  0
LWPOLYLINE
  5
51
  8
mainlayer
 62
256
370
1
 48
2.0
  6
BYLAYER
100
AcDbEntity
100
AcDbPolyline
 90
13
 70
0
 10
-0.6103482610120302
 20
-0.3523847327947157
 30
0.0
 10
-0.6114675318595005
 20
-0.3530934604799054
 30
0.0
 10
-0.6147043781098082
 20
-0.3553993050908946
 30
0.0
 10
-0.6198591352869459
 20
-0.3595587080739826
 30
0.0
 10
-0.6267090367176806
 20
-0.3658091558730941
 30
0.0
 10
-0.6350098153349887
 20
-0.3743673358824346
 30
0.0
 10
-0.6444974431600546
 20
-0.3854274192121801
 30
0.0
 10
-0.6548899988374017
 20
-0.3991594801150294
 30
0.0
 10
-0.6658896529142765
 20
-0.4157080612122196
 30
0.0
 10
-0.6771847599230683
 20
-0.435190892902002
 30
0.0
 10
-0.6884520457474175
 20
-0.457697774535239
 30
0.0
 10
-0.6993588782315611
 20
-0.4832896241055033
 30
0.0
 10
-0.7095656085309853
 20
-0.5119977023288802
 30
0.0
  0
ARC
  5
52
100
AcDbEntity
  8
mainlayer
 62
256
370
1
 48
1.0
  6
BYLAYER
100
AcDbCircle
 10
0.0
 20
0.0
 30
0.0
 40
0.8750000000000001
100
AcDbArc
 50
215.8128973224728213
 51
220.702401618096502
  0
LWPOLYLINE
  5
53
  8
mainlayer
 62
256
370
1
 48
2.0
  6
BYLAYER
100
AcDbEntity
100
AcDbPolyline
 90
13
 70
0
 10
-0.6633436268214038
 20
-0.5706139086592846
 30
0.0
 10
-0.633046902878115
 20
-0.5673828690450327
 30
0.0
 10
-0.6056172462512507
 20
-0.562744367498571
 30
0.0
 10
-0.5811034592723974
 20
-0.5570359790521241
 30
0.0
 10
-0.5595238683893751
 20
-0.5505953711371967
 30
0.0
 10
-0.5408665327265078
 20
-0.5437578458462535
 30
0.0
 10
-0.5250896387229229
 20
-0.53685391032034
 30
0.0
 10
-0.5121220780509167
 20
-0.5302068887899316
 30
0.0
 10
-0.5018642050606732
 20
-0.5241305895509318
 30
0.0
 10
-0.4941887690619213
 20
-0.5189270398462339
 30
0.0
 10
-0.4889420158419615
 20
-0.5148843012472372
 30
0.0
 10
-0.4859449519372833
 20
-0.5122743776909939
 30
0.0
 10
-0.4849947643269351
 20
-0.5113512278294375
 30
0.0
  0
LINE
  5
54
100
AcDbEntity
100
AcDbLine
  8
mainlayer
 62
256
370
1
 48
2.0
  6
BYLAYER
 10
-0.4849947643269351
 20
-0.5113512278294375
 30
0.0
 11
-0.4301005399699314
 21
-0.4534738421536278
 31
0.0
  0
ARC
  5
55
100
AcDbEntity
  8
mainlayer
 62
256
370
1
 48
1.0
  6
BYLAYER
100
AcDbCircle
 10
0.0
 20
0.0
 30
0.0
 40
0.625
100
AcDbArc
 50
226.5152989405692949
 51
239.9999999999999716
  0
LINE
  5
56
100
AcDbEntity
100
AcDbLine
  8
mainlayer
 62
256
370
1
 48
2.0
  6
BYLAYER
 10
-0.625
 20
0.0000000000000001
 30
0.0
 11
-0.7047694655894313
 21
0.0000000000000001
 31
0.0
  0
LWPOLYLINE
  5
57
  8
mainlayer
 62
256
370
1
 48
2.0
  6
BYLAYER
100
AcDbEntity
100
AcDbPolyline
 90
13
 70
0
 10
-0.7047694655894313
 20
0.0000000000000001
 30
0.0
 10
-0.7060931464196507
 20
-0.0000541407560043
 30
0.0
 10
-0.7100492598060562
 20
-0.0004326376411467
 30
0.0
 10
-0.7165931119633416
 20
-0.0014574077005088
 30
0.0
 10
-0.7256505245153331
 20
-0.0034455035642006
 30
0.0
 10
-0.7371182996737827
 20
-0.0067067155537956
 30
0.0
 10
-0.7508648680568146
 20
-0.0115412147727948
 30
0.0
 10
-0.7667311157350661
 20
-0.0182372505223039
 30
0.0
 10
-0.7845313861470757
 20
-0.0270689151106202
 30
0.0
 10
-0.8040546516000443
 20
-0.0382939887872323
 30
0.0
 10
-0.8250658481722496
 20
-0.0521518771294103
 30
0.0
 10
-0.8473073669634714
 20
-0.0688616527450173
 30
0.0
 10
-0.8705006938040376
 20
-0.0886202126305804
 30
0.0
  0
ARC
  5
58
100
AcDbEntity
  8
mainlayer
 62
256
370
1
 48
1.0
  6
BYLAYER
100
AcDbCircle
 10
0.0
 20
0.0
 30
0.0
 40
0.8750000000000001
100
AcDbArc
 50
185.8128973224727645
 51
190.702401618096502
  0
LWPOLYLINE
  5
59
  8
mainlayer
 62
256
370
1
 48
2.0
  6
BYLAYER
100
AcDbEntity
100
AcDbPolyline
 90
13
 70
0
 10
-0.8597793865954825
 20
-0.1624943272409717
 30
0.0
 10
-0.8319261342020242
 20
-0.1748445268260399
 30
0.0
 10
-0.8058521039728447
 20
-0.1845422949647429
 30
0.0
 10
-0.7817683474829741
 20
-0.191855579044877
 30
0.0
 10
-0.759859569617538
 20
-0.1970676444162458
 30
0.0
 10
-0.74028308032109
 20
-0.2004748416467042
 30
0.0
 10
-0.7231679215582144
 20
-0.2023843050969657
 30
0.0
 10
-0.7086141738259367
 20
-0.203111595928133
 30
0.0
 10
-0.6966924456080918
 20
-0.2029783029212848
 30
0.0
 10
-0.6874435481957021
 20
-0.2023096146865374
 30
0.0
 10
-0.6808783573203308
 20
-0.2014318769689262
 30
0.0
 10
-0.6769778620639924
 20
-0.2006701488196233
 30
0.0
 10
-0.6756934005242914
 20
-0.2003457713931894
 30
0.0
  0
LINE
  5
5A
100
AcDbEntity
100
AcDbLine
  8
mainlayer
 62
256
370
1
 48
2.0
  6
BYLAYER
 10
-0.6756934005242914
 20
-0.2003457713931894
 30
0.0
 11
-0.5992149148721789
 21
-0.1776695972718105
 31
0.0
  0
ARC
  5
5B
100
AcDbEntity
  8
mainlayer
 62
256
370
1
 48
1.0
  6
BYLAYER
100
AcDbCircle
 10
0.0
 20
0.0
 30
0.0
 40
0.625
100
AcDbArc
 50
196.5152989405692665
 51
210.0
  0
LINE
  5
5C
100
AcDbEntity
100
AcDbLine
  8
mainlayer
 62
256
370
1
 48
2.0
  6
BYLAYER
 10
-0.5412658773652742
 20
0.3124999999999999
 30
0.0
 11
-0.6103482610120303
 21
0.3523847327947156
 31
0.0
  0
LWPOLYLINE
  5
5D
  8
mainlayer
 62
256
370
1
 48
2.0
  6
BYLAYER
100
AcDbEntity
100
AcDbPolyline
 90
13
 70
0
 10
-0.6103482610120303
 20
0.3523847327947156
 30
0.0
 10
-0.6115216726155051
 20
0.3529996859397453
 30
0.0
 10
-0.615137015750955
 20
0.3546499547151615
 30
0.0
 10
-0.6213165429874549
 20
0.357034403889359
 30
0.0
 10
-0.6301545402818814
 20
0.3598413686422389
 30
0.0
 10
-0.6417165308887844
 20
0.362750963791348
 30
0.0
 10
-0.6560386579328497
 20
0.3654374488446346
 30
0.0
 10
-0.6731272493597059
 20
0.3675716356200368
 30
0.0
 10
-0.6929585680248967
 20
0.3688233249348562
 30
0.0
 10
-0.7154787487103008
 20
0.3688637586980424
 30
0.0
 10
-0.7406039228768281
 20
0.3673680736370106
 30
0.0
 10
-0.7682205309765786
 20
0.3640177428579682
 30
0.0
 10
-0.7981858211615659
 20
0.3585029914751575
 30
0.0
  0
ARC
  5
5E
100
AcDbEntity
  8
mainlayer
 62
256
370
1
 48
1.0
  6
BYLAYER
100
AcDbCircle
 10
0.0
 20
0.0
 30
0.0
 40
0.8750000000000001
100
AcDbArc
 50
155.8128973224727929
 51
160.702401618096502
  0
LWPOLYLINE
  5
5F
  8
mainlayer
 62
256
370
1
 48
2.0
  6
BYLAYER
100
AcDbEntity
100
AcDbPolyline
 90
13
 70
0
 10
-0.8258379540623756
 20
0.2891654779361978
 30
0.0
 10
-0.8078914297041551
 20
0.2645432651569916
 30
0.0
 10
-0.7901595412159939
 20
0.2431077364742737
 30
0.0
 10
-0.7729590383172745
 20
0.22473236843085
 30
0.0
 10
-0.7565915128056211
 20
0.2092641984803414
 30
0.0
 10
-0.7413413743732122
 20
0.1965252344748364
 30
0.0
 10
-0.7274739438198888
 20
0.1863140112378743
 30
0.0
 10
-0.7152336739790498
 20
0.1784072850360051
 30
0.0
 10
-0.7048425079819582
 20
0.17256185605716
 30
0.0
 10
-0.6964983837484588
 20
0.1685165083494682
 30
0.0
 10
-0.6903738928108879
 20
0.1659940560730935
 30
0.0
 10
-0.6866151007569067
 20
0.1647034843729984
 30
0.0
 10
-0.6853405357201247
 20
0.1643421726948538
 30
0.0
  0
LINE
  5
60
100
AcDbEntity
100
AcDbLine
  8
mainlayer
 62
256
370
1
 48
2.0
  6
BYLAYER
 10
-0.6853405357201247
 20
0.1643421726948538
 30
0.0
 11
-0.6077701372417421
 21
0.145741072718551
 31
0.0
  0
ARC
  5
61
100
AcDbEntity
  8
mainlayer
 62
256
370
1
 48
1.0
  6
BYLAYER
100
AcDbCircle
 10
0.0
 20
0.0
 30
0.0
 40
0.625
100
AcDbArc
 50
166.5152989405692949
 51
180.0
  0
LINE
  5
62
100
AcDbEntity
100
AcDbLine
  8
mainlayer
 62
256
370
1
 48
2.0
  6
BYLAYER
 10
-0.3124999999999999
 20
0.5412658773652742
 30
0.0
 11
-0.3523847327947155
 21
0.6103482610120303
 31
0.0
  0
LWPOLYLINE
  5
63
  8
mainlayer
 62
256
370
1
 48
2.0
  6
BYLAYER
100
AcDbEntity
100
AcDbPolyline
 90
13
 70
0
 10
-0.3523847327947155
 20
0.6103482610120303
 30
0.0
 10
-0.3530934604799051
 20
0.6114675318595006
 30
0.0
 10
-0.3553993050908944
 20
0.6147043781098083
 30
0.0
 10
-0.3595587080739824
 20
0.6198591352869459
 30
0.0
 10
-0.3658091558730939
 20
0.6267090367176807
 30
0.0
 10
-0.3743673358824345
 20
0.6350098153349888
 30
0.0
 10
-0.3854274192121798
 20
0.6444974431600548
 30
0.0
 10
-0.3991594801150292
 20
0.6548899988374018
 30
0.0
 10
-0.4157080612122193
 20
0.6658896529142765
 30
0.0
 10
-0.4351908929020017
 20
0.6771847599230684
 30
0.0
 10
-0.4576977745352387
 20
0.6884520457474176
 30
0.0
 10
-0.483289624105503
 20
0.6993588782315612
 30
0.0
 10
-0.51199770232888
 20
0.7095656085309855
 30
0.0
  0
ARC
  5
64
100
AcDbEntity
  8
mainlayer
 62
256
370
1
 48
1.0
  6
BYLAYER
100
AcDbCircle
 10
0.0
 20
0.0
 30
0.0
 40
0.8750000000000001
100
AcDbArc
 50
125.8128973224727645
 51
130.702401618096502
  0
LWPOLYLINE
  5
65
  8
mainlayer
 62
256
370
1
 48
2.0
  6
BYLAYER
100
AcDbEntity
100
AcDbPolyline
 90
13
 70
0
 10
-0.5706139086592844
 20
0.6633436268214038
 30
0.0
 10
-0.5673828690450324
 20
0.6330469028781152
 30
0.0
 10
-0.5627443674985707
 20
0.6056172462512509
 30
0.0
 10
-0.5570359790521239
 20
0.5811034592723975
 30
0.0
 10
-0.5505953711371964
 20
0.5595238683893753
 30
0.0
 10
-0.5437578458462533
 20
0.540866532726508
 30
0.0
 10
-0.5368539103203398
 20
0.5250896387229231
 30
0.0
 10
-0.5302068887899314
 20
0.5121220780509168
 30
0.0
 10
-0.5241305895509316
 20
0.5018642050606734
 30
0.0
 10
-0.5189270398462337
 20
0.4941887690619216
 30
0.0
 10
-0.5148843012472371
 20
0.4889420158419616
 30
0.0
 10
-0.5122743776909937
 20
0.4859449519372833
 30
0.0
 10
-0.5113512278294373
 20
0.4849947643269352
 30
0.0
  0
LINE
  5
66
100
AcDbEntity
100
AcDbLine
  8
mainlayer
 62
256
370
1
 48
2.0
  6
BYLAYER
 10
-0.5113512278294373
 20
0.4849947643269352
 30
0.0
 11
-0.4534738421536277
 21
0.4301005399699316
 31
0.0
  0
ARC
  5
67
100
AcDbEntity
  8
mainlayer
 62
256
370
1
 48
1.0
  6
BYLAYER
100
AcDbCircle
 10
0.0
 20
0.0
 30
0.0
 40
0.625
100
AcDbArc
 50
136.5152989405692665
 51
149.9999999999999716
  0
LINE
  5
68
100
AcDbEntity
100
AcDbLine
  8
mainlayer
 62
256
370
1
 48
2.0
  6
BYLAYER
 10
0.0
 20
0.625
 30
0.0
 11
0.0
 21
0.7047694655894313
 31
0.0
  0
LWPOLYLINE
  5
69
  8
mainlayer
 62
256
370
1
 48
2.0
  6
BYLAYER
100
AcDbEntity
100
AcDbPolyline
 90
13
 70
0
 10
0.0
 20
0.7047694655894313
 30
0.0
 10
-0.0000541407560044
 20
0.7060931464196507
 30
0.0
 10
-0.0004326376411467
 20
0.7100492598060562
 30
0.0
 10
-0.0014574077005088
 20
0.7165931119633416
 30
0.0
 10
-0.0034455035642006
 20
0.7256505245153331
 30
0.0
 10
-0.0067067155537956
 20
0.7371182996737827
 30
0.0
 10
-0.0115412147727949
 20
0.7508648680568146
 30
0.0
 10
-0.018237250522304
 20
0.7667311157350661
 30
0.0
 10
-0.0270689151106202
 20
0.7845313861470757
 30
0.0
 10
-0.0382939887872324
 20
0.8040546516000443
 30
0.0
 10
-0.0521518771294104
 20
0.8250658481722496
 30
0.0
 10
-0.0688616527450174
 20
0.8473073669634714
 30
0.0
 10
-0.0886202126305805
 20
0.8705006938040376
 30
0.0
  0
ARC
  5
6A
100
AcDbEntity
  8
mainlayer
 62
256
370
1
 48
1.0
  6
BYLAYER
100
AcDbCircle
 10
0.0
 20
0.0
 30
0.0
 40
0.8750000000000001
100
AcDbArc
 50
95.8128973224727929
 51
100.7024016180964878
  0
LWPOLYLINE
  5
6B
  8
mainlayer
 62
256
370
1
 48
2.0
  6
BYLAYER
100
AcDbEntity
100
AcDbPolyline
 90
13
 70
0
 10
-0.1624943272409717
 20
0.8597793865954825
 30
0.0
 10
-0.17484452682604
 20
0.8319261342020242
 30
0.0
 10
-0.1845422949647429
 20
0.8058521039728447
 30
0.0
 10
-0.191855579044877
 20
0.7817683474829741
 30
0.0
 10
-0.1970676444162459
 20
0.759859569617538
 30
0.0
 10
-0.2004748416467043
 20
0.74028308032109
 30
0.0
 10
-0.2023843050969657
 20
0.7231679215582144
 30
0.0
 10
-0.203111595928133
 20
0.7086141738259367
 30
0.0
 10
-0.2029783029212848
 20
0.6966924456080918
 30
0.0
 10
-0.2023096146865374
 20
0.6874435481957021
 30
0.0
 10
-0.2014318769689263
 20
0.6808783573203308
 30
0.0
 10
-0.2006701488196233
 20
0.6769778620639924
 30
0.0
 10
-0.2003457713931895
 20
0.6756934005242914
 30
0.0
  0
LINE
  5
6C
100
AcDbEntity
100
AcDbLine
  8
mainlayer
 62
256
370
1
 48
2.0
  6
BYLAYER
 10
-0.2003457713931895
 20
0.6756934005242914
 30
0.0
 11
-0.1776695972718106
 21
0.5992149148721789
 31
0.0
  0
ARC
  5
6D
100
AcDbEntity
  8
mainlayer
 62
256
370
1
 48
1.0
  6
BYLAYER
100
AcDbCircle
 10
0.0
 20
0.0
 30
0.0
 40
0.625
100
AcDbArc
 50
106.5152989405692807
 51
119.9999999999999858
  0
LINE
  5
6E
100
AcDbEntity
100
AcDbLine
  8
mainlayer
 62
256
370
1
 48
2.0
  6
BYLAYER
 10
0.3125000000000001
 20
0.5412658773652741
 30
0.0
 11
0.3523847327947157
 21
0.6103482610120302
 31
0.0
  0
LWPOLYLINE
  5
6F
  8
mainlayer
 62
256
370
1
 48
2.0
  6
BYLAYER
100
AcDbEntity
100
AcDbPolyline
 90
13
 70
0
 10
0.3523847327947157
 20
0.6103482610120302
 30
0.0
 10
0.3529996859397455
 20
0.6115216726155049
 30
0.0
 10
0.3546499547151616
 20
0.6151370157509549
 30
0.0
 10
0.3570344038893591
 20
0.6213165429874549
 30
0.0
 10
0.359841368642239
 20
0.6301545402818813
 30
0.0
 10
0.3627509637913482
 20
0.6417165308887843
 30
0.0
 10
0.3654374488446347
 20
0.6560386579328495
 30
0.0
 10
0.3675716356200369
 20
0.6731272493597058
 30
0.0
 10
0.3688233249348564
 20
0.6929585680248967
 30
0.0
 10
0.3688637586980426
 20
0.7154787487103007
 30
0.0
 10
0.3673680736370108
 20
0.740603922876828
 30
0.0
 10
0.3640177428579683
 20
0.7682205309765785
 30
0.0
 10
0.3585029914751576
 20
0.7981858211615659
 30
0.0
  0
ARC
  5
70
100
AcDbEntity
  8
mainlayer
 62
256
370
1
 48
1.0
  6
BYLAYER
100
AcDbCircle
 10
0.0
 20
0.0
 30
0.0
 40
0.8750000000000001
100
AcDbArc
 50
65.8128973224727787
 51
70.702401618096502
  0
LWPOLYLINE
  5
71
  8
mainlayer
 62
256
370
1
 48
2.0
  6
BYLAYER
100
AcDbEntity
100
AcDbPolyline
 90
13
 70
0
 10
0.2891654779361981
 20
0.8258379540623756
 30
0.0
 10
0.2645432651569918
 20
0.8078914297041552
 30
0.0
 10
0.2431077364742739
 20
0.7901595412159937
 30
0.0
 10
0.2247323684308502
 20
0.7729590383172744
 30
0.0
 10
0.2092641984803416
 20
0.7565915128056211
 30
0.0
 10
0.1965252344748366
 20
0.7413413743732121
 30
0.0
 10
0.1863140112378745
 20
0.7274739438198887
 30
0.0
 10
0.1784072850360052
 20
0.7152336739790498
 30
0.0
 10
0.1725618560571602
 20
0.7048425079819582
 30
0.0
 10
0.1685165083494683
 20
0.6964983837484588
 30
0.0
 10
0.1659940560730937
 20
0.6903738928108878
 30
0.0
 10
0.1647034843729985
 20
0.6866151007569067
 30
0.0
 10
0.164342172694854
 20
0.6853405357201247
 30
0.0
  0
LINE
  5
72
100
AcDbEntity
100
AcDbLine
  8
mainlayer
 62
256
370
1
 48
2.0
  6
BYLAYER
 10
0.164342172694854
 20
0.6853405357201247
 30
0.0
 11
0.1457410727185512
 21
0.607770137241742
 31
0.0
  0
ARC
  5
73
100
AcDbEntity
  8
mainlayer
 62
256
370
1
 48
1.0
  6
BYLAYER
100
AcDbCircle
 10
0.0
 20
0.0
 30
0.0
 40
0.625
100
AcDbArc
 50
76.5152989405692807
 51
89.9999999999999858
  0
LINE
  5
74
100
AcDbEntity
100
AcDbLine
  8
mainlayer
 62
256
370
1
 48
2.0
  6
BYLAYER
 10
0.5412658773652742
 20
0.3124999999999999
 30
0.0
 11
0.6103482610120303
 21
0.3523847327947156
 31
0.0
  0
LWPOLYLINE
  5
75
  8
mainlayer
 62
256
370
1
 48
2.0
  6
BYLAYER
100
AcDbEntity
100
AcDbPolyline
 90
13
 70
0
 10
0.6103482610120303
 20
0.3523847327947156
 30
0.0
 10
0.6114675318595006
 20
0.3530934604799053
 30
0.0
 10
0.6147043781098083
 20
0.3553993050908945
 30
0.0
 10
0.6198591352869459
 20
0.3595587080739825
 30
0.0
 10
0.6267090367176807
 20
0.365809155873094
 30
0.0
 10
0.6350098153349888
 20
0.3743673358824346
 30
0.0
 10
0.6444974431600548
 20
0.3854274192121799
 30
0.0
 10
0.6548899988374018
 20
0.3991594801150293
 30
0.0
 10
0.6658896529142765
 20
0.4157080612122194
 30
0.0
 10
0.6771847599230684
 20
0.4351908929020018
 30
0.0
 10
0.6884520457474176
 20
0.4576977745352389
 30
0.0
 10
0.6993588782315612
 20
0.4832896241055031
 30
0.0
 10
0.7095656085309855
 20
0.5119977023288801
 30
0.0
  0
ARC
  5
76
100
AcDbEntity
  8
mainlayer
 62
256
370
1
 48
1.0
  6
BYLAYER
100
AcDbCircle
 10
0.0
 20
0.0
 30
0.0
 40
0.8750000000000001
100
AcDbArc
 50
35.8128973224727858
 51
40.7024016180964949
  0
LWPOLYLINE
  5
77
  8
mainlayer
 62
256
370
1
 48
2.0
  6
BYLAYER
100
AcDbEntity
100
AcDbPolyline
 90
13
 70
0
 10
0.6633436268214038
 20
0.5706139086592845
 30
0.0
 10
0.6330469028781152
 20
0.5673828690450325
 30
0.0
 10
0.6056172462512508
 20
0.5627443674985708
 30
0.0
 10
0.5811034592723975
 20
0.557035979052124
 30
0.0
 10
0.5595238683893753
 20
0.5505953711371965
 30
0.0
 10
0.5408665327265079
 20
0.5437578458462535
 30
0.0
 10
0.525089638722923
 20
0.53685391032034
 30
0.0
 10
0.5121220780509167
 20
0.5302068887899315
 30
0.0
 10
0.5018642050606734
 20
0.5241305895509317
 30
0.0
 10
0.4941887690619215
 20
0.5189270398462338
 30
0.0
 10
0.4889420158419616
 20
0.5148843012472371
 30
0.0
 10
0.4859449519372833
 20
0.5122743776909938
 30
0.0
 10
0.4849947643269352
 20
0.5113512278294374
 30
0.0
  0
LINE
  5
78
100
AcDbEntity
100
AcDbLine
  8
mainlayer
 62
256
370
1
 48
2.0
  6
BYLAYER
 10
0.4849947643269352
 20
0.5113512278294374
 30
0.0
 11
0.4301005399699316
 21
0.4534738421536278
 31
0.0
  0
ARC
  5
79
100
AcDbEntity
  8
mainlayer
 62
256
370
1
 48
1.0
  6
BYLAYER
100
AcDbCircle
 10
0.0
 20
0.0
 30
0.0
 40
0.625
100
AcDbArc
 50
46.5152989405692807
 51
59.9999999999999929
  0
LINE
  5
7A
100
AcDbEntity
100
AcDbLine
  8
mainlayer
 62
256
370
1
 48
2.0
  6
BYLAYER
 10
0.625
 20
0.0
 30
0.0
 11
0.7047694655894313
 21
0.0
 31
0.0
  0
LWPOLYLINE
  5
7B
  8
mainlayer
 62
256
370
1
 48
2.0
  6
BYLAYER
100
AcDbEntity
100
AcDbPolyline
 90
13
 70
0
 10
0.7047694655894313
 20
0.0
 30
0.0
 10
0.7060931464196507
 20
0.0000541407560044
 30
0.0
 10
0.7100492598060562
 20
0.0004326376411468
 30
0.0
 10
0.7165931119633416
 20
0.0014574077005089
 30
0.0
 10
0.7256505245153331
 20
0.0034455035642006
 30
0.0
 10
0.7371182996737827
 20
0.0067067155537957
 30
0.0
 10
0.7508648680568146
 20
0.0115412147727949
 30
0.0
 10
0.7667311157350661
 20
0.018237250522304
 30
0.0
 10
0.7845313861470757
 20
0.0270689151106203
 30
0.0
 10
0.8040546516000443
 20
0.0382939887872324
 30
0.0
 10
0.8250658481722496
 20
0.0521518771294104
 30
0.0
 10
0.8473073669634714
 20
0.0688616527450174
 30
0.0
 10
0.8705006938040376
 20
0.0886202126305805
 30
0.0
  0
ARC
  5
7C
100
AcDbEntity
  8
mainlayer
 62
256
370
1
 48
1.0
  6
BYLAYER
100
AcDbCircle
 10
0.0
 20
0.0
 30
0.0
 40
0.8750000000000001
100
AcDbArc
 50
5.8128973224727893
 51
10.7024016180964985
  0
LWPOLYLINE
  5
7D
  8
mainlayer
 62
256
370
1
 48
2.0
  6
BYLAYER
100
AcDbEntity
100
AcDbPolyline
 90
13
 70
0
 10
0.8597793865954825
 20
0.1624943272409718
 30
0.0
 10
0.8319261342020242
 20
0.17484452682604
 30
0.0
 10
0.8058521039728447
 20
0.184542294964743
 30
0.0
 10
0.7817683474829741
 20
0.1918555790448771
 30
0.0
 10
0.759859569617538
 20
0.1970676444162459
 30
0.0
 10
0.74028308032109
 20
0.2004748416467043
 30
0.0
 10
0.7231679215582144
 20
0.2023843050969658
 30
0.0
 10
0.7086141738259367
 20
0.2031115959281331
 30
0.0
 10
0.6966924456080918
 20
0.2029783029212849
 30
0.0
 10
0.6874435481957021
 20
0.2023096146865374
 30
0.0
 10
0.6808783573203308
 20
0.2014318769689263
 30
0.0
 10
0.6769778620639924
 20
0.2006701488196234
 30
0.0
 10
0.6756934005242914
 20
0.2003457713931895
 30
0.0
  0
LINE
  5
7E
100
AcDbEntity
100
AcDbLine
  8
mainlayer
 62
256
370
1
 48
2.0
  6
BYLAYER
 10
0.6756934005242914
 20
0.2003457713931895
 30
0.0
 11
0.5992149148721789
 21
0.1776695972718106
 31
0.0
  0
ARC
  5
7F
100
AcDbEntity
  8
mainlayer
 62
256
370
1
 48
1.0
  6
BYLAYER
100
AcDbCircle
 10
0.0
 20
0.0
 30
0.0
 40
0.625
100
AcDbArc
 50
16.5152989405692878
 51
29.9999999999999964
  0
ENDSEC
  0
SECTION
  2
OBJECTS
  0
DICTIONARY
  5
C
100
AcDbDictionary
280
0
281
1
  3
ACAD_GROUP
350
D
  3
ACAD_LAYOUT
350
1A
  3
ACAD_MLINESTYLE
350
17
  3
ACAD_PLOTSETTINGS
350
19
  3
ACAD_PLOTSTYLENAME
350
E
  3
AcDbVariableDictionary
350
80
  0
DICTIONARY
  5
D
100
AcDbDictionary
280
0
281
1
  0
ACDBDICTIONARYWDFLT
  5
E
100
AcDbDictionary
281
1
  3
Normal
350
F
100
AcDbDictionaryWithDefault
340
F
  0
ACDBPLACEHOLDER
  5
F
  0
DICTIONARY
  5
17
100
AcDbDictionary
280
0
281
1
  3
Standard
350
18
  0
MLINESTYLE
  5
18
100
AcDbMlineStyle
  2
STANDARD
 70
0
  3

 62
256
 51
90.0
 52
90.0
 71
2
 49
0.5
 62
256
  6
BYLAYER
 49
-0.5
 62
256
  6
BYLAYER
  0
DICTIONARY
  5
19
100
AcDbDictionary
280
0
281
1
  0
DICTIONARY
  5
1A
100
AcDbDictionary
281
1
  3
Layout1
350
1E
  3
Layout2
350
26
  3
Model
350
22
  0
LAYOUT
  5
1E
100
AcDbPlotSettings
  1

  2
none_device
  4

  6

 40
0.0
 41
0.0
 42
0.0
 43
0.0
 44
0.0
 45
0.0
 46
0.0
 47
0.0
 48
0.0
 49
0.0
140
0.0
141
0.0
142
1.0
143
1.0
 70
688
 72
0
 73
0
 74
5
  7

 75
16
147
1.0
148
0.0
149
0.0
100
AcDbLayout
  1
Layout1
 70
1
 71
1
 10
0.0
 20
0.0
 11
420.0
 21
297.0
 12
0.0
 22
0.0
 32
0.0
 14
100000000000000000000.0
 24
100000000000000000000.0
 34
100000000000000000000.0
 15
-100000000000000000000.0
 25
-100000000000000000000.0
 35
-100000000000000000000.0
146
0.0
 13
0.0
 23
0.0
 33
0.0
 16
1.0
 26
0.0
 36
0.0
 17
0.0
 27
1.0
 37
0.0
 76
0
330
1B
  0
LAYOUT
  5
22
100
AcDbPlotSettings
  1

  2
none_device
  4

  6

 40
0.0
 41
0.0
 42
0.0
 43
0.0
 44
0.0
 45
0.0
 46
0.0
 47
0.0
 48
0.0
 49
0.0
140
0.0
141
0.0
142
1.0
143
1.0
 70
1712
 72
0
 73
0
 74
0
  7

 75
0
147
1.0
148
0.0
149
0.0
100
AcDbLayout
  1
Model
 70
1
 71
0
 10
0.0
 20
0.0
 11
12.0
 21
9.0
 12
0.0
 22
0.0
 32
0.0
 14
0.0
 24
0.0
 34
0.0
 15
0.0
 25
0.0
 35
0.0
146
0.0
 13
0.0
 23
0.0
 33
0.0
 16
1.0
 26
0.0
 36
0.0
 17
0.0
 27
1.0
 37
0.0
 76
0
330
1F
  0
LAYOUT
  5
26
100
AcDbPlotSettings
  1

  2
none_device
  4

  6

 40
0.0
 41
0.0
 42
0.0
 43
0.0
 44
0.0
 45
0.0
 46
0.0
 47
0.0
 48
0.0
 49
0.0
140
0.0
141
0.0
142
1.0
143
1.0
 70
688
 72
0
 73
0
 74
5
  7

 75
16
147
1.0
148
0.0
149
0.0
100
AcDbLayout
  1
Layout2
 70
1
 71
2
 10
0.0
 20
0.0
 11
12.0
 21
9.0
 12
0.0
 22
0.0
 32
0.0
 14
0.0
 24
0.0
 34
0.0
 15
0.0
 25
0.0
 35
0.0
146
0.0
 13
0.0
 23
0.0
 33
0.0
 16
1.0
 26
0.0
 36
0.0
 17
0.0
 27
1.0
 37
0.0
 76
0
330
23
  0
DICTIONARY
  5
80
100
AcDbDictionary
281
1
  3
DIMASSOC
350
82
  3
HIDETEXT
350
81
  0
DICTIONARYVAR
  5
81
100
DictionaryVariables
280
0
  1
2
  0
DICTIONARYVAR
  5
82
100
DictionaryVariables
280
0
  1
1
  0
ENDSEC
  0
EOF
