999
dxflib 3.7.5.0
  0
SECTION
  2
HEADER
  9
$ACADVER
  1
AC1015
  9
$HANDSEED
  5
FFFF
  9
$INSUNITS
 70
1
  9
$DIMEXE
 40
1.25
  9
$TEXTSTYLE
  7
Standard
  9
$LIMMIN
 10
0.0
 20
0.0
  0
ENDSEC
  0
SECTION
  2
TABLES
  0
TABLE
  2
VPORT
  5
8
100
AcDbSymbolTable
 70
1
  0
VPORT
  5
30
100
AcDbSymbolTableRecord
100
AcDbViewportTableRecord
  2
*Active
 70
0
 10
0.0
 20
0.0
 11
1.0
 21
1.0
 12
4.4156419370100002
 22
2.2759285562199998
 13
0.0
 23
0.0
 14
10.0
 24
10.0
 15
10.0
 25
10.0
 16
0.0
 26
0.0
 36
1.0
 17
0.0
 27
0.0
 37
0.0
 40
9.2626319295599995
 41
1.92798353909465
 42
50.0
 43
0.0
 44
0.0
 50
0.0
 51
0.0
 71
0
 72
100
 73
1
 74
3
 75
1
 76
1
 77
0
 78
0
281
0
 65
1
110
0.0
120
0.0
130
0.0
111
1.0
121
0.0
131
0.0
112
0.0
122
1.0
132
0.0
 79
0
146
0.0
  0
ENDTAB
  0
TABLE
  2
LTYPE
  5
5
100
AcDbSymbolTable
 70
25
  0
LTYPE
  5
16
100
AcDbSymbolTableRecord
100
AcDbLinetypeTableRecord
  2
CONTINUOUS
 70
0
  3
Solid line
 72
65
 73
0
 40
0.0
  0
ENDTAB
  0
TABLE
  2
LAYER
  5
2
100
AcDbSymbolTable
 70
3
  0
LAYER
  5
10
100
AcDbSymbolTableRecord
100
AcDbLayerTableRecord
  2
0
 70
0
 62
250
  6
CONTINUOUS
370
100
390
F
  0
ENDTAB
  0
TABLE
  2
STYLE
  5
3
100
AcDbSymbolTable
 70
1
  5
31
100
AcDbSymbolTableRecord
100
AcDbTextStyleTableRecord
  2
standard
 70
0
 40
2.5
 41
1.0
 50
0.0
 71
0
 42
2.5
  3

  4

1001
ACAD
1000
standard
1071
0
  0
ENDTAB
  0
TABLE
  2
VIEW
  5
6
100
AcDbSymbolTable
 70
0
  0
ENDTAB
  0
TABLE
  2
UCS
  5
7
100
AcDbSymbolTable
 70
0
  0
ENDTAB
  0
TABLE
  2
APPID
  5
9
100
AcDbSymbolTable
 70
1
  0
APPID
  5
12
100
AcDbSymbolTableRecord
100
AcDbRegAppTableRecord
  2
ACAD
 70
0
  0
ENDTAB
  0
TABLE
  2
DIMSTYLE
  5
A
100
AcDbSymbolTable
 70
1
100
AcDbDimStyleTable
 71
0
  0
DIMSTYLE
105
27
100
AcDbSymbolTableRecord
100
AcDbDimStyleTableRecord
  2
Standard
 41
1.0
 42
1.0
 43
3.75
 44
1.0
 70
0
 73
0
 74
0
 77
1
 78
8
140
1.0
141
2.5
143
0.03937007874016
147
1.0
171
3
172
1
271
2
272
2
274
3
278
44
283
0
284
8
340
CDCDCDCD
  0
ENDTAB
  0
TABLE
  2
BLOCK_RECORD
  5
1
100
AcDbSymbolTable
 70
1
  0
BLOCK_RECORD
  5
1F
100
AcDbSymbolTableRecord
100
AcDbBlockTableRecord
  2
*Model_Space
340
22
  0
BLOCK_RECORD
  5
1B
100
AcDbSymbolTableRecord
100
AcDbBlockTableRecord
  2
*Paper_Space
340
1E
  0
BLOCK_RECORD
  5
23
100
AcDbSymbolTableRecord
100
AcDbBlockTableRecord
  2
*Paper_Space0
340
26
  0
BLOCK_RECORD
  5
32
100
AcDbSymbolTableRecord
100
AcDbBlockTableRecord
  2
myblock1
340
0
  0
BLOCK_RECORD
  5
33
100
AcDbSymbolTableRecord
100
AcDbBlockTableRecord
  2
myblock2
340
0
  0
ENDTAB
  0
ENDSEC
  0
SECTION
  2
BLOCKS
  0
BLOCK
  5
20
100
AcDbEntity
  8
0
100
AcDbBlockBegin
  2
*Model_Space
 70
0
 10
0.0
 20
0.0
 30
0.0
  3
*Model_Space
  1

  0
ENDBLK
  5
21
100
AcDbEntity
  8
0
100
AcDbBlockEnd
  0
BLOCK
  5
1C
100
AcDbEntity
 67
1
  8
0
100
AcDbBlockBegin
  2
*Paper_Space
 70
0
 10
0.0
 20
0.0
 30
0.0
  3
*Paper_Space
  1

  0
ENDBLK
  5
1D
100
AcDbEntity
 67
1
  8
0
100
AcDbBlockEnd
  0
BLOCK
  5
34
100
AcDbEntity
  8
0
100
AcDbBlockBegin
  2
myblock1
 70
0
 10
0.0
 20
0.0
 30
0.0
  3
myblock1
  1

  0
ENDBLK
  5
35
100
AcDbEntity
  8
0
100
AcDbBlockEnd
  0
BLOCK
  5
36
100
AcDbEntity
  8
0
100
AcDbBlockBegin
  2
myblock2
 70
0
 10
0.0
 20
0.0
 30
0.0
  3
myblock2
  1

  0
ENDBLK
  5
37
100
AcDbEntity
  8
0
100
AcDbBlockEnd
  0
ENDSEC
  0
SECTION
  2
ENTITIES
  0
LINE
  5
38
100
AcDbEntity
100
AcDbLine
  8
mainlayer
 62
256
370
1
 48
2.0
  6
BYLAYER
 10
1.0699385808320476
 20
-0.347644118671816
 30
0.0
 11
1.1171259878911362
 21
-0.3629762366394736
 31
0.0
  0
LWPOLYLINE
  5
39
  8
mainlayer
 62
256
370
1
 48
2.0
  6
BYLAYER
100
AcDbEntity
100
AcDbPolyline
 90
13
 70
0
 10
1.1171259878911362
 20
-0.3629762366394736
 30
0.0
 10
1.1185771746543025
 20
-0.363394085660569
 30
0.0
 10
1.122982658007162
 20
-0.3644501541470338
 30
0.0
 10
1.1304033234578592
 20
-0.3658441897556385
 30
0.0
 10
1.1408771302575795
 20
-0.3672717934522498
 30
0.0
 10
1.1544188671706224
 20
-0.3684259754777469
 30
0.0
 10
1.171020007203734
 20
-0.3689987244132332
 30
0.0
 10
1.1906486619439001
 20
-0.3686825833057252
 30
0.0
 10
1.213249635795761
 20
-0.3671722267859517
 30
0.0
 10
1.2387445800505323
 20
-0.3641660331011293
 30
0.0
 10
1.2670322463590569
 20
-0.3593676449976369
 30
0.0
 10
1.2979888388235292
 20
-0.3524875134213658
 30
0.0
 10
1.3314684635666967
 20
-0.3432444180570754
 30
0.0
  0
ARC
  5
3A
100
AcDbEntity
  8
mainlayer
 62
256
370
1
 48
1.0
  6
BYLAYER
100
AcDbCircle
 10
0.0
 20
0.0
 30
0.0
 40
1.375
100
AcDbArc
 50
345.5442450925663707
 51
348.9710538480029527
  0
LWPOLYLINE
  5
3B
  8
mainlayer
 62
256
370
1
 48
2.0
  6
BYLAYER
100
AcDbEntity
100
AcDbPolyline
 90
13
 70
0
 10
1.3496046580444647
 20
-0.2630442300919811
 30
0.0
 10
1.3233596212396428
 20
-0.24029520532233
 30
0.0
 10
1.2983754135837569
 20
-0.2207648137408536
 30
0.0
 10
1.2749047341962416
 20
-0.2042619714807264
 30
0.0
 10
1.2531839179530395
 20
-0.1905785682215365
 30
0.0
 10
1.2334318754178064
 20
-0.1794906463443009
 30
0.0
 10
1.2158491108005745
 20
-0.1707596429355563
 30
0.0
 10
1.2006168215464659
 20
-0.1641336897346015
 30
0.0
 10
1.1878960828589866
 20
-0.1593489659165608
 30
0.0
 10
1.1778271201533062
 20
-0.156131098420211
 30
0.0
 10
1.1705286721158203
 20
-0.1541966043640446
 30
0.0
 10
1.1660974467182039
 20
-0.1532543699473819
 30
0.0
 10
1.1646076721982446
 20
-0.1530071601059523
 30
0.0
  0
LINE
  5
3C
100
AcDbEntity
100
AcDbLine
  8
mainlayer
 62
256
370
1
 48
2.0
  6
BYLAYER
 10
1.1646076721982446
 20
-0.1530071601059523
 30
0.0
 11
1.1154146385674564
 21
-0.1465441369329758
 31
0.0
  0
ARC
  5
3D
100
AcDbEntity
  8
mainlayer
 62
256
370
1
 48
1.0
  6
BYLAYER
100
AcDbCircle
 10
0.0
 20
0.0
 30
0.0
 40
1.125
100
AcDbArc
 50
352.5152989405692665
 51
360.0
  0
LINE
  5
3E
100
AcDbEntity
100
AcDbLine
  8
mainlayer
 62
256
370
1
 48
2.0
  6
BYLAYER
 10
0.9101441186718158
 20
-0.6612584088290325
 30
0.0
 11
0.9502841246306661
 21
-0.6904218302325259
 31
0.0
  0
LWPOLYLINE
  5
3F
  8
mainlayer
 62
256
370
1
 48
2.0
  6
BYLAYER
100
AcDbEntity
100
AcDbPolyline
 90
13
 70
0
 10
0.9502841246306661
 20
-0.6904218302325259
 30
0.0
 10
0.9515351628095354
 20
-0.6912676696386967
 30
0.0
 10
0.9553986833501606
 20
-0.6936334196788724
 30
0.0
 10
0.9620253748884698
 20
-0.6972523380622199
 30
0.0
 10
0.971545403292275
 20
-0.7018466541574826
 30
0.0
 10
0.9840676985648984
 20
-0.707128973333307
 30
0.0
 10
0.9996793318167421
 20
-0.7128037243368321
 30
0.0
 10
1.0184449847883252
 20
-0.7185686441678977
 30
0.0
 10
1.040406514076929
 20
-0.7241162947674871
 30
0.0
 10
1.0655826118800036
 20
-0.7291356057196576
 30
0.0
 10
1.0939685647230946
 20
-0.7333134370666599
 30
0.0
 10
1.1255361112893278
 20
-0.7363361562575406
 30
0.0
 10
1.1602334001126275
 20
-0.7378912231915292
 30
0.0
  0
ARC
  5
40
100
AcDbEntity
  8
mainlayer
 62
256
370
1
 48
1.0
  6
BYLAYER
100
AcDbCircle
 10
0.0
 20
0.0
 30
0.0
 40
1.375
100
AcDbArc
 50
327.5442450925663138
 51
330.9710538480029527
  0
LWPOLYLINE
  5
41
  8
mainlayer
 62
256
370
1
 48
2.0
  6
BYLAYER
100
AcDbEntity
100
AcDbPolyline
 90
13
 70
0
 10
1.2022651670847848
 20
-0.6672207041261496
 30
0.0
 10
1.1843344890704315
 20
-0.6374749334889271
 30
0.0
 10
1.1666083184803033
 20
-0.6111798825529066
 30
0.0
 10
1.1493860346208011
 20
-0.5882319080837536
 30
0.0
 10
1.1329567149414292
 20
-0.5685061168981618
 30
0.0
 10
1.1175977624705244
 20
-0.5518571597276416
 30
0.0
 10
1.1035735880380697
 20
-0.5381201089671406
 30
0.0
 10
1.0911343522278851
 20
-0.5271114167559512
 30
0.0
 10
1.0805147717802355
 20
-0.5186299495546971
 30
0.0
 10
1.071932994928684
 20
-0.5124580951119365
 30
0.0
 10
1.065589549902664
 20
-0.5083629374579395
 30
0.0
 10
1.0616663705605223
 20
-0.5060974953223256
 30
0.0
 10
1.0603259028376828
 20
-0.5054020191472874
 30
0.0
  0
LINE
  5
42
100
AcDbEntity
100
AcDbLine
  8
mainlayer
 62
256
370
1
 48
2.0
  6
BYLAYER
 10
1.0603259028376828
 20
-0.5054020191472874
 30
0.0
 11
1.015537731642284
 21
-0.4840538354468896
 31
0.0
  0
ARC
  5
43
100
AcDbEntity
  8
mainlayer
 62
256
370
1
 48
1.0
  6
BYLAYER
100
AcDbCircle
 10
0.0
 20
0.0
 30
0.0
 40
1.125
100
AcDbArc
 50
334.5152989405692665
 51
342.0
  0
LINE
  5
44
100
AcDbEntity
100
AcDbLine
  8
mainlayer
 62
256
370
1
 48
2.0
  6
BYLAYER
 10
0.6612584088290321
 20
-0.910144118671816
 30
0.0
 11
0.6904218302325253
 21
-0.9502841246306664
 31
0.0
  0
LWPOLYLINE
  5
45
  8
mainlayer
 62
256
370
1
 48
2.0
  6
BYLAYER
100
AcDbEntity
100
AcDbPolyline
 90
13
 70
0
 10
0.6904218302325253
 20
-0.9502841246306664
 30
0.0
 10
0.6913502594936543
 20
-0.9514751577675267
 30
0.0
 10
0.6942936289127987
 20
-0.9549190132643314
 30
0.0
 10
0.6994776798000752
 20
-0.9604085694765725
 30
0.0
 10
0.7071120430978625
 20
-0.9677198743005997
 30
0.0
 10
0.7173891272208205
 20
-0.9766132604217401
 30
0.0
 10
0.7304830782560611
 20
-0.9868345293267639
 30
0.0
 10
0.7465488165982104
 20
-0.99811619957678
 30
0.0
 10
0.7657211538218164
 20
-1.0101788146022899
 30
0.0
 10
0.7881139933080415
 20
-1.022732305063859
 30
0.0
 10
0.813819617844854
 20
-1.0354774006204486
 30
0.0
 10
0.8429080671109155
 20
-1.0481070857635546
 30
0.0
 10
0.8754266076340969
 20
-1.0603080942095355
 30
0.0
  0
ARC
  5
46
100
AcDbEntity
  8
mainlayer
 62
256
370
1
 48
1.0
  6
BYLAYER
100
AcDbCircle
 10
0.0
 20
0.0
 30
0.0
 40
1.375
100
AcDbArc
 50
309.5442450925663138
 51
312.9710538480029527
  0
LWPOLYLINE
  5
47
  8
mainlayer
 62
256
370
1
 48
2.0
  6
BYLAYER
100
AcDbEntity
100
AcDbPolyline
 90
13
 70
0
 10
0.9372395848968671
 20
-1.0060849668404495
 30
0.0
 10
0.9293784453674072
 20
-0.9722541736165974
 30
0.0
 10
0.9206454729258917
 20
-0.9417684061200431
 30
0.0
 10
0.9113574217332779
 20
-0.9146216070708448
 30
0.0
 10
0.9018278148977544
 20
-0.8907843258377656
 30
0.0
 10
0.8923653937711444
 20
-0.8702040493019167
 30
0.0
 10
0.8832725934290845
 20
-0.8528056294297579
 30
0.0
 10
0.8748440501331771
 20
-0.838491805704034
 30
0.0
 10
0.8673651464505404
 20
-0.8271438202230821
 30
0.0
 10
0.8611105995641031
 20
-0.8186221229486064
 30
0.0
 10
0.8563430981460763
 20
-0.8127671642605931
 30
0.0
 10
0.8533119929878158
 20
-0.8094002716665254
 30
0.0
 10
0.8522520463823957
 20
-0.8083246072115589
 30
0.0
  0
LINE
  5
48
100
AcDbEntity
100
AcDbLine
  8
mainlayer
 62
256
370
1
 48
2.0
  6
BYLAYER
 10
0.8522520463823957
 20
-0.8083246072115589
 30
0.0
 11
0.8162529158765299
 21
-0.7741809719458769
 31
0.0
  0
ARC
  5
49
100
AcDbEntity
  8
mainlayer
 62
256
370
1
 48
1.0
  6
BYLAYER
100
AcDbCircle
 10
0.0
 20
0.0
 30
0.0
 40
1.125
100
AcDbArc
 50
316.5152989405692665
 51
324.0
  0
LINE
  5
4A
100
AcDbEntity
100
AcDbLine
  8
mainlayer
 62
256
370
1
 48
2.0
  6
BYLAYER
 10
0.3476441186718157
 20
-1.0699385808320478
 30
0.0
 11
0.3629762366394731
 21
-1.1171259878911364
 31
0.0
  0
LWPOLYLINE
  5
4B
  8
mainlayer
 62
256
370
1
 48
2.0
  6
BYLAYER
100
AcDbEntity
100
AcDbPolyline
 90
13
 70
0
 10
0.3629762366394731
 20
-1.1171259878911364
 30
0.0
 10
0.3634911758580354
 20
-1.1185456281368347
 30
0.0
 10
0.3652262766492922
 20
-1.1227304805194886
 30
0.0
 10
0.3684602358652833
 20
-1.1295533185505822
 30
0.0
 10
0.3734616293857285
 20
-1.138865930646342
 30
0.0
 10
0.3804875097604105
 20
-1.1504998371153965
 30
0.0
 10
0.389782051420797
 20
-1.164267094905727
 30
0.0
 10
0.4015752487280019
 20
-1.1799611870866034
 30
0.0
 10
0.4160816719376353
 20
-1.1973579937341561
 30
0.0
 10
0.4334992859580125
 20
-1.2162168405934344
 30
0.0
 10
0.4540083365572659
 20
-1.23628162160623
 30
0.0
 10
0.47777030843785
 20
-1.2572819911235638
 30
0.0
 10
0.5049269593445093
 20
-1.2789346213654191
 30
0.0
  0
ARC
  5
4C
100
AcDbEntity
  8
mainlayer
 62
256
370
1
 48
1.0
  6
BYLAYER
100
AcDbCircle
 10
0.0
 20
0.0
 30
0.0
 40
1.375
100
AcDbArc
 50
291.5442450925663138
 51
294.9710538480029527
  0
LWPOLYLINE
  5
4D
  8
mainlayer
 62
256
370
1
 48
2.0
  6
BYLAYER
100
AcDbEntity
100
AcDbPolyline
 90
13
 70
0
 10
0.580470462007076
 20
-1.2464666231942561
 30
0.0
 10
0.5834483640714327
 20
-1.2118624011375221
 30
0.0
 10
0.5845634339673021
 20
-1.1801700764098288
 30
0.0
 10
0.5841187946059678
 20
-1.1514817706143914
 30
0.0
 10
0.5824217249280288
 20
-1.125866358505023
 30
0.0
 10
0.5797820828541507
 20
-1.1033693034623924
 30
0.0
 10
0.5765107232532318
 20
-1.0840125930375817
 30
0.0
 10
0.5729179170145191
 20
-1.0677947745938716
 30
0.0
 10
0.569311777297938
 20
-1.0546910907181613
 30
0.0
 10
0.56599669900385
 20
-1.0446537137153526
 30
0.0
 10
0.5632718174497486
 20
-1.0376120781436018
 30
0.0
 10
0.5614294921672109
 20
-1.0334733099967077
 30
0.0
 10
0.5607538216380311
 20
-1.0321227507932598
 30
0.0
  0
LINE
  5
4E
100
AcDbEntity
100
AcDbLine
  8
mainlayer
 62
256
370
1
 48
2.0
  6
BYLAYER
 10
0.5607538216380311
 20
-1.0321227507932598
 30
0.0
 11
0.5370675775363033
 21
-0.9885258808747938
 31
0.0
  0
ARC
  5
4F
100
AcDbEntity
  8
mainlayer
 62
256
370
1
 48
1.0
  6
BYLAYER
100
AcDbCircle
 10
0.0
 20
0.0
 30
0.0
 40
1.125
100
AcDbArc
 50
298.5152989405692665
 51
306.0
  0
LINE
  5
50
100
AcDbEntity
100
AcDbLine
  8
mainlayer
 62
256
370
1
 48
2.0
  6
BYLAYER
 10
-0.0000000000000002
 20
-1.125
 30
0.0
 11
-0.0000000000000002
 21
-1.1746157759823856
 31
0.0
  0
LWPOLYLINE
  5
51
  8
mainlayer
 62
256
370
1
 48
2.0
  6
BYLAYER
100
AcDbEntity
100
AcDbPolyline
 90
13
 70
0
 10
-0.0000000000000002
 20
-1.1746157759823856
 30
0.0
 10
0.0000510433374899
 20
-1.1761250590584578
 30
0.0
 10
0.000408031746253
 20
-1.180641265818166
 30
0.0
 10
0.0013753368305785
 20
-1.1881295187441205
 30
0.0
 10
0.0032541893291427
 20
-1.1985318547548964
 30
0.0
 10
0.0063411238322878
 20
-1.2117674737484811
 30
0.0
 10
0.0109264416212222
 20
-1.2277330853094757
 30
0.0
 10
0.0172926975730161
 20
-1.246303352331378
 30
0.0
 10
0.0257132169927244
 20
-1.2673314299556317
 30
0.0
 10
0.0364506481312863
 20
-1.2906495978847208
 30
0.0
 10
0.0497555560253677
 20
-1.3160699837886403
 30
0.0
 10
0.0658650631534097
 20
-1.3433853751936666
 30
0.0
 10
0.0850015422412904
 20
-1.3723701169205784
 30
0.0
  0
ARC
  5
52
100
AcDbEntity
  8
mainlayer
 62
256
370
1
 48
1.0
  6
BYLAYER
100
AcDbCircle
 10
0.0
 20
0.0
 30
0.0
 40
1.375
100
AcDbArc
 50
273.5442450925663138
 51
276.9710538480029527
  0
LWPOLYLINE
  5
53
  8
mainlayer
 62
256
370
1
 48
2.0
  6
BYLAYER
100
AcDbEntity
100
AcDbPolyline
 90
13
 70
0
 10
0.1668808459205089
 20
-1.3648354418261768
 30
0.0
 10
0.1804062917763594
 20
-1.3328450932932658
 30
0.0
 10
0.1912602531990572
 20
-1.3030484768921906
 30
0.0
 10
0.1997025500676742
 20
-1.2756268756049516
 30
0.0
 10
0.2060041385515762
 20
-1.2507407476296293
 30
0.0
 10
0.2104456620880889
 20
-1.2285290825739894
 30
0.0
 10
0.2133159666989514
 20
-1.2091088512790393
 30
0.0
 10
0.2149105864246318
 20
-1.1925745511827985
 30
0.0
 10
0.2155302047550181
 20
-1.1789978487888184
 30
0.0
 10
0.2154790980142131
 20
-1.1684273204532294
 30
0.0
 10
0.2150635667159187
 20
-1.1608882923494639
 30
0.0
 10
0.214590360943994
 20
-1.1563827801124547
 30
0.0
 10
0.2143651058301237
 20
-1.1548895283052583
 30
0.0
  0
LINE
  5
54
100
AcDbEntity
100
AcDbLine
  8
mainlayer
 62
256
370
1
 48
2.0
  6
BYLAYER
 10
0.2143651058301237
 20
-1.1548895283052583
 30
0.0
 11
0.2053103227369778
 21
-1.1061069891188817
 31
0.0
  0
ARC
  5
55
100
AcDbEntity
  8
mainlayer
 62
256
370
1
 48
1.0
  6
BYLAYER
100
AcDbCircle
 10
0.0
 20
0.0
 30
0.0
 40
1.125
100
AcDbArc
 50
280.5152989405692665
 51
288.0
  0
LINE
  5
56
100
AcDbEntity
100
AcDbLine
  8
mainlayer
 62
256
370
1
 48
2.0
  6
BYLAYER
 10
-0.347644118671816
 20
-1.0699385808320476
 30
0.0
 11
-0.3629762366394735
 21
-1.1171259878911362
 31
0.0
  0
LWPOLYLINE
  5
57
  8
mainlayer
 62
256
370
1
 48
2.0
  6
BYLAYER
100
AcDbEntity
100
AcDbPolyline
 90
13
 70
0
 10
-0.3629762366394735
 20
-1.1171259878911362
 30
0.0
 10
-0.3633940856605689
 20
-1.1185771746543025
 30
0.0
 10
-0.3644501541470337
 20
-1.122982658007162
 30
0.0
 10
-0.3658441897556384
 20
-1.1304033234578592
 30
0.0
 10
-0.3672717934522498
 20
-1.1408771302575795
 30
0.0
 10
-0.3684259754777467
 20
-1.1544188671706224
 30
0.0
 10
-0.3689987244132331
 20
-1.171020007203734
 30
0.0
 10
-0.3686825833057251
 20
-1.1906486619439001
 30
0.0
 10
-0.3671722267859517
 20
-1.213249635795761
 30
0.0
 10
-0.3641660331011293
 20
-1.2387445800505323
 30
0.0
 10
-0.3593676449976368
 20
-1.2670322463590569
 30
0.0
 10
-0.3524875134213657
 20
-1.2979888388235292
 30
0.0
 10
-0.3432444180570753
 20
-1.3314684635666967
 30
0.0
  0
ARC
  5
58
100
AcDbEntity
  8
mainlayer
 62
256
370
1
 48
1.0
  6
BYLAYER
100
AcDbCircle
 10
0.0
 20
0.0
 30
0.0
 40
1.375
100
AcDbArc
 50
255.5442450925663422
 51
258.9710538480029527
  0
LWPOLYLINE
  5
59
  8
mainlayer
 62
256
370
1
 48
2.0
  6
BYLAYER
100
AcDbEntity
100
AcDbPolyline
 90
13
 70
0
 10
-0.2630442300919811
 20
-1.3496046580444647
 30
0.0
 10
-0.2402952053223299
 20
-1.3233596212396428
 30
0.0
 10
-0.2207648137408535
 20
-1.2983754135837569
 30
0.0
 10
-0.2042619714807263
 20
-1.2749047341962416
 30
0.0
 10
-0.1905785682215365
 20
-1.2531839179530395
 30
0.0
 10
-0.1794906463443008
 20
-1.2334318754178064
 30
0.0
 10
-0.1707596429355563
 20
-1.2158491108005745
 30
0.0
 10
-0.1641336897346014
 20
-1.2006168215464659
 30
0.0
 10
-0.1593489659165608
 20
-1.1878960828589866
 30
0.0
 10
-0.156131098420211
 20
-1.1778271201533062
 30
0.0
 10
-0.1541966043640446
 20
-1.1705286721158203
 30
0.0
 10
-0.1532543699473819
 20
-1.1660974467182039
 30
0.0
 10
-0.1530071601059523
 20
-1.1646076721982446
 30
0.0
  0
LINE
  5
5A
100
AcDbEntity
100
AcDbLine
  8
mainlayer
 62
256
370
1
 48
2.0
  6
BYLAYER
 10
-0.1530071601059523
 20
-1.1646076721982446
 30
0.0
 11
-0.1465441369329757
 21
-1.1154146385674564
 31
0.0
  0
ARC
  5
5B
100
AcDbEntity
  8
mainlayer
 62
256
370
1
 48
1.0
  6
BYLAYER
100
AcDbCircle
 10
0.0
 20
0.0
 30
0.0
 40
1.125
100
AcDbArc
 50
262.5152989405692665
 51
270.0
  0
LINE
  5
5C
100
AcDbEntity
100
AcDbLine
  8
mainlayer
 62
256
370
1
 48
2.0
  6
BYLAYER
 10
-0.6612584088290324
 20
-0.9101441186718158
 30
0.0
 11
-0.6904218302325258
 21
-0.9502841246306661
 31
0.0
  0
LWPOLYLINE
  5
5D
  8
mainlayer
 62
256
370
1
 48
2.0
  6
BYLAYER
100
AcDbEntity
100
AcDbPolyline
 90
13
 70
0
 10
-0.6904218302325258
 20
-0.9502841246306661
 30
0.0
 10
-0.6912676696386966
 20
-0.9515351628095354
 30
0.0
 10
-0.6936334196788723
 20
-0.9553986833501606
 30
0.0
 10
-0.6972523380622198
 20
-0.9620253748884698
 30
0.0
 10
-0.7018466541574825
 20
-0.971545403292275
 30
0.0
 10
-0.7071289733333069
 20
-0.9840676985648984
 30
0.0
 10
-0.712803724336832
 20
-0.9996793318167421
 30
0.0
 10
-0.7185686441678976
 20
-1.0184449847883252
 30
0.0
 10
-0.724116294767487
 20
-1.040406514076929
 30
0.0
 10
-0.7291356057196575
 20
-1.0655826118800036
 30
0.0
 10
-0.7333134370666596
 20
-1.0939685647230946
 30
0.0
 10
-0.7363361562575403
 20
-1.1255361112893278
 30
0.0
 10
-0.7378912231915291
 20
-1.1602334001126275
 30
0.0
  0
ARC
  5
5E
100
AcDbEntity
  8
mainlayer
 62
256
370
1
 48
1.0
  6
BYLAYER
100
AcDbCircle
 10
0.0
 20
0.0
 30
0.0
 40
1.375
100
AcDbArc
 50
237.5442450925663422
 51
240.9710538480029243
  0
LWPOLYLINE
  5
5F
  8
mainlayer
 62
256
370
1
 48
2.0
  6
BYLAYER
100
AcDbEntity
100
AcDbPolyline
 90
13
 70
0
 10
-0.6672207041261495
 20
-1.2022651670847848
 30
0.0
 10
-0.6374749334889269
 20
-1.1843344890704315
 30
0.0
 10
-0.6111798825529065
 20
-1.1666083184803033
 30
0.0
 10
-0.5882319080837535
 20
-1.1493860346208011
 30
0.0
 10
-0.5685061168981618
 20
-1.1329567149414292
 30
0.0
 10
-0.5518571597276414
 20
-1.1175977624705244
 30
0.0
 10
-0.5381201089671405
 20
-1.1035735880380697
 30
0.0
 10
-0.5271114167559511
 20
-1.0911343522278851
 30
0.0
 10
-0.5186299495546969
 20
-1.0805147717802355
 30
0.0
 10
-0.5124580951119364
 20
-1.071932994928684
 30
0.0
 10
-0.5083629374579394
 20
-1.065589549902664
 30
0.0
 10
-0.5060974953223254
 20
-1.0616663705605223
 30
0.0
 10
-0.5054020191472873
 20
-1.0603259028376828
 30
0.0
  0
LINE
  5
60
100
AcDbEntity
100
AcDbLine
  8
mainlayer
 62
256
370
1
 48
2.0
  6
BYLAYER
 10
-0.5054020191472873
 20
-1.0603259028376828
 30
0.0
 11
-0.4840538354468895
 21
-1.015537731642284
 31
0.0
  0
ARC
  5
61
100
AcDbEntity
  8
mainlayer
 62
256
370
1
 48
1.0
  6
BYLAYER
100
AcDbCircle
 10
0.0
 20
0.0
 30
0.0
 40
1.125
100
AcDbArc
 50
244.5152989405692949
 51
252.0
  0
LINE
  5
62
100
AcDbEntity
100
AcDbLine
  8
mainlayer
 62
256
370
1
 48
2.0
  6
BYLAYER
 10
-0.910144118671816
 20
-0.6612584088290322
 30
0.0
 11
-0.9502841246306664
 21
-0.6904218302325256
 31
0.0
  0
LWPOLYLINE
  5
63
  8
mainlayer
 62
256
370
1
 48
2.0
  6
BYLAYER
100
AcDbEntity
100
AcDbPolyline
 90
13
 70
0
 10
-0.9502841246306664
 20
-0.6904218302325256
 30
0.0
 10
-0.9514751577675267
 20
-0.6913502594936544
 30
0.0
 10
-0.9549190132643314
 20
-0.6942936289127988
 30
0.0
 10
-0.9604085694765725
 20
-0.6994776798000755
 30
0.0
 10
-0.9677198743005997
 20
-0.7071120430978627
 30
0.0
 10
-0.9766132604217401
 20
-0.7173891272208207
 30
0.0
 10
-0.9868345293267639
 20
-0.7304830782560612
 30
0.0
 10
-0.99811619957678
 20
-0.7465488165982106
 30
0.0
 10
-1.0101788146022899
 20
-0.7657211538218166
 30
0.0
 10
-1.022732305063859
 20
-0.7881139933080417
 30
0.0
 10
-1.0354774006204486
 20
-0.8138196178448542
 30
0.0
 10
-1.0481070857635546
 20
-0.8429080671109157
 30
0.0
 10
-1.0603080942095355
 20
-0.875426607634097
 30
0.0
  0
ARC
  5
64
100
AcDbEntity
  8
mainlayer
 62
256
370
1
 48
1.0
  6
BYLAYER
100
AcDbCircle
 10
0.0
 20
0.0
 30
0.0
 40
1.375
100
AcDbArc
 50
219.5442450925663422
 51
222.9710538480029243
  0
LWPOLYLINE
  5
65
  8
mainlayer
 62
256
370
1
 48
2.0
  6
BYLAYER
100
AcDbEntity
100
AcDbPolyline
 90
13
 70
0
 10
-1.0060849668404495
 20
-0.9372395848968672
 30
0.0
 10
-0.9722541736165974
 20
-0.9293784453674073
 30
0.0
 10
-0.9417684061200431
 20
-0.9206454729258918
 30
0.0
 10
-0.9146216070708448
 20
-0.9113574217332781
 30
0.0
 10
-0.8907843258377656
 20
-0.9018278148977545
 30
0.0
 10
-0.8702040493019167
 20
-0.8923653937711445
 30
0.0
 10
-0.8528056294297579
 20
-0.8832725934290846
 30
0.0
 10
-0.838491805704034
 20
-0.8748440501331772
 30
0.0
 10
-0.827143820223082
 20
-0.8673651464505405
 30
0.0
 10
-0.8186221229486064
 20
-0.8611105995641033
 30
0.0
 10
-0.8127671642605931
 20
-0.8563430981460766
 30
0.0
 10
-0.8094002716665254
 20
-0.8533119929878159
 30
0.0
 10
-0.8083246072115589
 20
-0.8522520463823957
 30
0.0
  0
LINE
  5
66
100
AcDbEntity
100
AcDbLine
  8
mainlayer
 62
256
370
1
 48
2.0
  6
BYLAYER
 10
-0.8083246072115589
 20
-0.8522520463823957
 30
0.0
 11
-0.7741809719458768
 21
-0.81625291587653
 31
0.0
  0
ARC
  5
67
100
AcDbEntity
  8
mainlayer
 62
256
370
1
 48
1.0
  6
BYLAYER
100
AcDbCircle
 10
0.0
 20
0.0
 30
0.0
 40
1.125
100
AcDbArc
 50
226.5152989405692949
 51
234.0
  0
LINE
  5
68
100
AcDbEntity
100
AcDbLine
  8
mainlayer
 62
256
370
1
 48
2.0
  6
BYLAYER
 10
-1.0699385808320476
 20
-0.3476441186718162
 30
0.0
 11
-1.1171259878911362
 21
-0.3629762366394737
 31
0.0
  0
LWPOLYLINE
  5
69
  8
mainlayer
 62
256
370
1
 48
2.0
  6
BYLAYER
100
AcDbEntity
100
AcDbPolyline
 90
13
 70
0
 10
-1.1171259878911362
 20
-0.3629762366394737
 30
0.0
 10
-1.1185456281368344
 20
-0.3634911758580359
 30
0.0
 10
-1.1227304805194884
 20
-0.3652262766492928
 30
0.0
 10
-1.1295533185505822
 20
-0.3684602358652839
 30
0.0
 10
-1.1388659306463418
 20
-0.3734616293857291
 30
0.0
 10
-1.1504998371153963
 20
-0.3804875097604111
 30
0.0
 10
-1.164267094905727
 20
-0.3897820514207976
 30
0.0
 10
-1.1799611870866031
 20
-0.4015752487280025
 30
0.0
 10
-1.1973579937341559
 20
-0.416081671937636
 30
0.0
 10
-1.2162168405934344
 20
-0.4334992859580131
 30
0.0
 10
-1.2362816216062298
 20
-0.4540083365572666
 30
0.0
 10
-1.2572819911235633
 20
-0.4777703084378507
 30
0.0
 10
-1.2789346213654191
 20
-0.5049269593445099
 30
0.0
  0
ARC
  5
6A
100
AcDbEntity
  8
mainlayer
 62
256
370
1
 48
1.0
  6
BYLAYER
100
AcDbCircle
 10
0.0
 20
0.0
 30
0.0
 40
1.375
100
AcDbArc
 50
201.5442450925663422
 51
204.9710538480029527
  0
LWPOLYLINE
  5
6B
  8
mainlayer
 62
256
370
1
 48
2.0
  6
BYLAYER
100
AcDbEntity
100
AcDbPolyline
 90
13
 70
0
 10
-1.2464666231942558
 20
-0.5804704620070766
 30
0.0
 10
-1.2118624011375219
 20
-0.5834483640714334
 30
0.0
 10
-1.1801700764098284
 20
-0.5845634339673028
 30
0.0
 10
-1.1514817706143912
 20
-0.5841187946059684
 30
0.0
 10
-1.1258663585050226
 20
-0.5824217249280295
 30
0.0
 10
-1.1033693034623921
 20
-0.5797820828541513
 30
0.0
 10
-1.0840125930375817
 20
-0.5765107232532324
 30
0.0
 10
-1.0677947745938714
 20
-0.5729179170145198
 30
0.0
 10
-1.054691090718161
 20
-0.5693117772979386
 30
0.0
 10
-1.0446537137153524
 20
-0.5659966990038505
 30
0.0
 10
-1.0376120781436016
 20
-0.5632718174497491
 30
0.0
 10
-1.0334733099967073
 20
-0.5614294921672116
 30
0.0
 10
-1.0321227507932595
 20
-0.5607538216380317
 30
0.0
  0
LINE
  5
6C
100
AcDbEntity
100
AcDbLine
  8
mainlayer
 62
256
370
1
 48
2.0
  6
BYLAYER
 10
-1.0321227507932595
 20
-0.5607538216380317
 30
0.0
 11
-0.9885258808747934
 21
-0.5370675775363039
 31
0.0
  0
ARC
  5
6D
100
AcDbEntity
  8
mainlayer
 62
256
370
1
 48
1.0
  6
BYLAYER
100
AcDbCircle
 10
0.0
 20
0.0
 30
0.0
 40
1.125
100
AcDbArc
 50
208.5152989405693233
 51
216.0000000000000284
  0
LINE
  5
6E
100
AcDbEntity
100
AcDbLine
  8
mainlayer
 62
256
370
1
 48
2.0
  6
BYLAYER
 10
-1.125
 20
0.0000000000000001
 30
0.0
 11
-1.1746157759823856
 21
0.0000000000000001
 31
0.0
  0
LWPOLYLINE
  5
6F
  8
mainlayer
 62
256
370
1
 48
2.0
  6
BYLAYER
100
AcDbEntity
100
AcDbPolyline
 90
13
 70
0
 10
-1.1746157759823856
 20
0.0000000000000001
 30
0.0
 10
-1.1761250590584578
 20
-0.0000510433374899
 30
0.0
 10
-1.180641265818166
 20
-0.0004080317462531
 30
0.0
 10
-1.1881295187441205
 20
-0.0013753368305786
 30
0.0
 10
-1.1985318547548964
 20
-0.0032541893291428
 30
0.0
 10
-1.2117674737484811
 20
-0.0063411238322879
 30
0.0
 10
-1.2277330853094757
 20
-0.0109264416212223
 30
0.0
 10
-1.246303352331378
 20
-0.0172926975730162
 30
0.0
 10
-1.2673314299556317
 20
-0.0257132169927245
 30
0.0
 10
-1.2906495978847208
 20
-0.0364506481312864
 30
0.0
 10
-1.3160699837886403
 20
-0.0497555560253678
 30
0.0
 10
-1.3433853751936666
 20
-0.0658650631534098
 30
0.0
 10
-1.3723701169205784
 20
-0.0850015422412904
 30
0.0
  0
ARC
  5
70
100
AcDbEntity
  8
mainlayer
 62
256
370
1
 48
1.0
  6
BYLAYER
100
AcDbCircle
 10
0.0
 20
0.0
 30
0.0
 40
1.375
100
AcDbArc
 50
183.5442450925663422
 51
186.9710538480029527
  0
LWPOLYLINE
  5
71
  8
mainlayer
 62
256
370
1
 48
2.0
  6
BYLAYER
100
AcDbEntity
100
AcDbPolyline
 90
13
 70
0
 10
-1.3648354418261768
 20
-0.166880845920509
 30
0.0
 10
-1.3328450932932658
 20
-0.1804062917763595
 30
0.0
 10
-1.3030484768921906
 20
-0.1912602531990572
 30
0.0
 10
-1.2756268756049516
 20
-0.1997025500676743
 30
0.0
 10
-1.2507407476296293
 20
-0.2060041385515762
 30
0.0
 10
-1.2285290825739894
 20
-0.210445662088089
 30
0.0
 10
-1.2091088512790393
 20
-0.2133159666989515
 30
0.0
 10
-1.1925745511827985
 20
-0.2149105864246319
 30
0.0
 10
-1.1789978487888184
 20
-0.2155302047550181
 30
0.0
 10
-1.1684273204532294
 20
-0.2154790980142132
 30
0.0
 10
-1.1608882923494639
 20
-0.2150635667159188
 30
0.0
 10
-1.1563827801124547
 20
-0.2145903609439941
 30
0.0
 10
-1.1548895283052583
 20
-0.2143651058301238
 30
0.0
  0
LINE
  5
72
100
AcDbEntity
100
AcDbLine
  8
mainlayer
 62
256
370
1
 48
2.0
  6
BYLAYER
 10
-1.1548895283052583
 20
-0.2143651058301238
 30
0.0
 11
-1.1061069891188817
 21
-0.2053103227369779
 31
0.0
  0
ARC
  5
73
100
AcDbEntity
  8
mainlayer
 62
256
370
1
 48
1.0
  6
BYLAYER
100
AcDbCircle
 10
0.0
 20
0.0
 30
0.0
 40
1.125
100
AcDbArc
 50
190.5152989405692949
 51
198.0
  0
LINE
  5
74
100
AcDbEntity
100
AcDbLine
  8
mainlayer
 62
256
370
1
 48
2.0
  6
BYLAYER
 10
-1.0699385808320476
 20
0.3476441186718159
 30
0.0
 11
-1.1171259878911362
 21
0.3629762366394735
 31
0.0
  0
LWPOLYLINE
  5
75
  8
mainlayer
 62
256
370
1
 48
2.0
  6
BYLAYER
100
AcDbEntity
100
AcDbPolyline
 90
13
 70
0
 10
-1.1171259878911362
 20
0.3629762366394735
 30
0.0
 10
-1.1185771746543025
 20
0.3633940856605688
 30
0.0
 10
-1.122982658007162
 20
0.3644501541470336
 30
0.0
 10
-1.1304033234578592
 20
0.3658441897556384
 30
0.0
 10
-1.1408771302575795
 20
0.3672717934522497
 30
0.0
 10
-1.1544188671706224
 20
0.3684259754777467
 30
0.0
 10
-1.171020007203734
 20
0.368998724413233
 30
0.0
 10
-1.1906486619439001
 20
0.3686825833057251
 30
0.0
 10
-1.213249635795761
 20
0.3671722267859516
 30
0.0
 10
-1.2387445800505323
 20
0.3641660331011292
 30
0.0
 10
-1.2670322463590569
 20
0.3593676449976367
 30
0.0
 10
-1.2979888388235292
 20
0.3524875134213656
 30
0.0
 10
-1.3314684635666967
 20
0.3432444180570753
 30
0.0
  0
ARC
  5
76
100
AcDbEntity
  8
mainlayer
 62
256
370
1
 48
1.0
  6
BYLAYER
100
AcDbCircle
 10
0.0
 20
0.0
 30
0.0
 40
1.375
100
AcDbArc
 50
165.5442450925663422
 51
168.9710538480029527
  0
LWPOLYLINE
  5
77
  8
mainlayer
 62
256
370
1
 48
2.0
  6
BYLAYER
100
AcDbEntity
100
AcDbPolyline
 90
13
 70
0
 10
-1.3496046580444647
 20
0.263044230091981
 30
0.0
 10
-1.3233596212396428
 20
0.2402952053223299
 30
0.0
 10
-1.2983754135837569
 20
0.2207648137408534
 30
0.0
 10
-1.2749047341962416
 20
0.2042619714807263
 30
0.0
 10
-1.2531839179530395
 20
0.1905785682215364
 30
0.0
 10
-1.2334318754178064
 20
0.1794906463443008
 30
0.0
 10
-1.2158491108005745
 20
0.1707596429355562
 30
0.0
 10
-1.2006168215464659
 20
0.1641336897346014
 30
0.0
 10
-1.1878960828589866
 20
0.1593489659165607
 30
0.0
 10
-1.1778271201533062
 20
0.1561310984202109
 30
0.0
 10
-1.1705286721158201
 20
0.1541966043640445
 30
0.0
 10
-1.1660974467182039
 20
0.1532543699473818
 30
0.0
 10
-1.1646076721982446
 20
0.1530071601059522
 30
0.0
  0
LINE
  5
78
100
AcDbEntity
100
AcDbLine
  8
mainlayer
 62
256
370
1
 48
2.0
  6
BYLAYER
 10
-1.1646076721982446
 20
0.1530071601059522
 30
0.0
 11
-1.1154146385674564
 21
0.1465441369329756
 31
0.0
  0
ARC
  5
79
100
AcDbEntity
  8
mainlayer
 62
256
370
1
 48
1.0
  6
BYLAYER
100
AcDbCircle
 10
0.0
 20
0.0
 30
0.0
 40
1.125
100
AcDbArc
 50
172.5152989405692949
 51
180.0
  0
LINE
  5
7A
100
AcDbEntity
100
AcDbLine
  8
mainlayer
 62
256
370
1
 48
2.0
  6
BYLAYER
 10
-0.9101441186718158
 20
0.6612584088290324
 30
0.0
 11
-0.9502841246306661
 21
0.6904218302325258
 31
0.0
  0
LWPOLYLINE
  5
7B
  8
mainlayer
 62
256
370
1
 48
2.0
  6
BYLAYER
100
AcDbEntity
100
AcDbPolyline
 90
13
 70
0
 10
-0.9502841246306661
 20
0.6904218302325258
 30
0.0
 10
-0.9515351628095354
 20
0.6912676696386966
 30
0.0
 10
-0.9553986833501606
 20
0.6936334196788723
 30
0.0
 10
-0.9620253748884698
 20
0.6972523380622198
 30
0.0
 10
-0.971545403292275
 20
0.7018466541574825
 30
0.0
 10
-0.9840676985648984
 20
0.7071289733333069
 30
0.0
 10
-0.9996793318167421
 20
0.712803724336832
 30
0.0
 10
-1.0184449847883252
 20
0.7185686441678976
 30
0.0
 10
-1.040406514076929
 20
0.724116294767487
 30
0.0
 10
-1.0655826118800036
 20
0.7291356057196575
 30
0.0
 10
-1.0939685647230946
 20
0.7333134370666596
 30
0.0
 10
-1.1255361112893278
 20
0.7363361562575403
 30
0.0
 10
-1.1602334001126275
 20
0.7378912231915291
 30
0.0
  0
ARC
  5
7C
100
AcDbEntity
  8
mainlayer
 62
256
370
1
 48
1.0
  6
BYLAYER
100
AcDbCircle
 10
0.0
 20
0.0
 30
0.0
 40
1.375
100
AcDbArc
 50
147.5442450925663422
 51
150.9710538480029527
  0
LWPOLYLINE
  5
7D
  8
mainlayer
 62
256
370
1
 48
2.0
  6
BYLAYER
100
AcDbEntity
100
AcDbPolyline
 90
13
 70
0
 10
-1.2022651670847848
 20
0.6672207041261495
 30
0.0
 10
-1.1843344890704315
 20
0.6374749334889269
 30
0.0
 10
-1.1666083184803033
 20
0.6111798825529065
 30
0.0
 10
-1.1493860346208011
 20
0.5882319080837535
 30
0.0
 10
-1.1329567149414292
 20
0.5685061168981618
 30
0.0
 10
-1.1175977624705244
 20
0.5518571597276414
 30
0.0
 10
-1.1035735880380697
 20
0.5381201089671405
 30
0.0
 10
-1.0911343522278851
 20
0.5271114167559511
 30
0.0
 10
-1.0805147717802355
 20
0.5186299495546969
 30
0.0
 10
-1.071932994928684
 20
0.5124580951119364
 30
0.0
 10
-1.065589549902664
 20
0.5083629374579394
 30
0.0
 10
-1.0616663705605223
 20
0.5060974953223254
 30
0.0
 10
-1.0603259028376828
 20
0.5054020191472873
 30
0.0
  0
LINE
  5
7E
100
AcDbEntity
100
AcDbLine
  8
mainlayer
 62
256
370
1
 48
2.0
  6
BYLAYER
 10
-1.0603259028376828
 20
0.5054020191472873
 30
0.0
 11
-1.015537731642284
 21
0.4840538354468895
 31
0.0
  0
ARC
  5
7F
100
AcDbEntity
  8
mainlayer
 62
256
370
1
 48
1.0
  6
BYLAYER
100
AcDbCircle
 10
0.0
 20
0.0
 30
0.0
 40
1.125
100
AcDbArc
 50
154.5152989405692665
 51
162.0
  0
LINE
  5
80
100
AcDbEntity
100
AcDbLine
  8
mainlayer
 62
256
370
1
 48
2.0
  6
BYLAYER
 10
-0.6612584088290322
 20
0.9101441186718159
 30
0.0
 11
-0.6904218302325256
 21
0.9502841246306662
 31
0.0
  0
LWPOLYLINE
  5
81
  8
mainlayer
 62
256
370
1
 48
2.0
  6
BYLAYER
100
AcDbEntity
100
AcDbPolyline
 90
13
 70
0
 10
-0.6904218302325256
 20
0.9502841246306662
 30
0.0
 10
-0.6913502594936544
 20
0.9514751577675266
 30
0.0
 10
-0.6942936289127988
 20
0.9549190132643313
 30
0.0
 10
-0.6994776798000755
 20
0.9604085694765724
 30
0.0
 10
-0.7071120430978627
 20
0.9677198743005996
 30
0.0
 10
-0.7173891272208207
 20
0.97661326042174
 30
0.0
 10
-0.7304830782560612
 20
0.9868345293267636
 30
0.0
 10
-0.7465488165982106
 20
0.9981161995767798
 30
0.0
 10
-0.7657211538218166
 20
1.0101788146022896
 30
0.0
 10
-0.7881139933080417
 20
1.0227323050638588
 30
0.0
 10
-0.8138196178448542
 20
1.0354774006204484
 30
0.0
 10
-0.8429080671109157
 20
1.0481070857635546
 30
0.0
 10
-0.875426607634097
 20
1.0603080942095353
 30
0.0
  0
ARC
  5
82
100
AcDbEntity
  8
mainlayer
 62
256
370
1
 48
1.0
  6
BYLAYER
100
AcDbCircle
 10
0.0
 20
0.0
 30
0.0
 40
1.375
100
AcDbArc
 50
129.5442450925663422
 51
132.9710538480029527
  0
LWPOLYLINE
  5
83
  8
mainlayer
 62
256
370
1
 48
2.0
  6
BYLAYER
100
AcDbEntity
100
AcDbPolyline
 90
13
 70
0
 10
-0.9372395848968672
 20
1.006084966840449
 30
0.0
 10
-0.9293784453674072
 20
0.9722541736165972
 30
0.0
 10
-0.9206454729258918
 20
0.9417684061200431
 30
0.0
 10
-0.9113574217332781
 20
0.9146216070708446
 30
0.0
 10
-0.9018278148977545
 20
0.8907843258377656
 30
0.0
 10
-0.8923653937711445
 20
0.8702040493019165
 30
0.0
 10
-0.8832725934290846
 20
0.8528056294297577
 30
0.0
 10
-0.8748440501331772
 20
0.8384918057040339
 30
0.0
 10
-0.8673651464505405
 20
0.8271438202230819
 30
0.0
 10
-0.8611105995641032
 20
0.8186221229486063
 30
0.0
 10
-0.8563430981460766
 20
0.812767164260593
 30
0.0
 10
-0.8533119929878159
 20
0.8094002716665253
 30
0.0
 10
-0.8522520463823957
 20
0.8083246072115587
 30
0.0
  0
LINE
  5
84
100
AcDbEntity
100
AcDbLine
  8
mainlayer
 62
256
370
1
 48
2.0
  6
BYLAYER
 10
-0.8522520463823957
 20
0.8083246072115587
 30
0.0
 11
-0.8162529158765299
 21
0.7741809719458768
 31
0.0
  0
ARC
  5
85
100
AcDbEntity
  8
mainlayer
 62
256
370
1
 48
1.0
  6
BYLAYER
100
AcDbCircle
 10
0.0
 20
0.0
 30
0.0
 40
1.125
100
AcDbArc
 50
136.5152989405692665
 51
144.0
  0
LINE
  5
86
100
AcDbEntity
100
AcDbLine
  8
mainlayer
 62
256
370
1
 48
2.0
  6
BYLAYER
 10
-0.3476441186718158
 20
1.0699385808320478
 30
0.0
 11
-0.3629762366394733
 21
1.1171259878911364
 31
0.0
  0
LWPOLYLINE
  5
87
  8
mainlayer
 62
256
370
1
 48
2.0
  6
BYLAYER
100
AcDbEntity
100
AcDbPolyline
 90
13
 70
0
 10
-0.3629762366394733
 20
1.1171259878911364
 30
0.0
 10
-0.3634911758580355
 20
1.1185456281368347
 30
0.0
 10
-0.3652262766492924
 20
1.1227304805194886
 30
0.0
 10
-0.3684602358652834
 20
1.1295533185505822
 30
0.0
 10
-0.3734616293857286
 20
1.138865930646342
 30
0.0
 10
-0.3804875097604106
 20
1.1504998371153965
 30
0.0
 10
-0.3897820514207971
 20
1.164267094905727
 30
0.0
 10
-0.401575248728002
 20
1.1799611870866034
 30
0.0
 10
-0.4160816719376355
 20
1.1973579937341561
 30
0.0
 10
-0.4334992859580126
 20
1.2162168405934344
 30
0.0
 10
-0.454008336557266
 20
1.23628162160623
 30
0.0
 10
-0.4777703084378502
 20
1.2572819911235635
 30
0.0
 10
-0.5049269593445094
 20
1.2789346213654191
 30
0.0
  0
ARC
  5
88
100
AcDbEntity
  8
mainlayer
 62
256
370
1
 48
1.0
  6
BYLAYER
100
AcDbCircle
 10
0.0
 20
0.0
 30
0.0
 40
1.375
100
AcDbArc
 50
111.5442450925663422
 51
114.9710538480029385
  0
LWPOLYLINE
  5
89
  8
mainlayer
 62
256
370
1
 48
2.0
  6
BYLAYER
100
AcDbEntity
100
AcDbPolyline
 90
13
 70
0
 10
-0.5804704620070762
 20
1.2464666231942561
 30
0.0
 10
-0.583448364071433
 20
1.2118624011375221
 30
0.0
 10
-0.5845634339673023
 20
1.1801700764098286
 30
0.0
 10
-0.5841187946059679
 20
1.1514817706143914
 30
0.0
 10
-0.582421724928029
 20
1.1258663585050228
 30
0.0
 10
-0.5797820828541509
 20
1.1033693034623924
 30
0.0
 10
-0.5765107232532318
 20
1.0840125930375817
 30
0.0
 10
-0.5729179170145193
 20
1.0677947745938716
 30
0.0
 10
-0.5693117772979381
 20
1.0546910907181613
 30
0.0
 10
-0.5659966990038501
 20
1.0446537137153526
 30
0.0
 10
-0.5632718174497486
 20
1.0376120781436018
 30
0.0
 10
-0.5614294921672112
 20
1.0334733099967077
 30
0.0
 10
-0.5607538216380312
 20
1.0321227507932598
 30
0.0
  0
LINE
  5
8A
100
AcDbEntity
100
AcDbLine
  8
mainlayer
 62
256
370
1
 48
2.0
  6
BYLAYER
 10
-0.5607538216380312
 20
1.0321227507932598
 30
0.0
 11
-0.5370675775363034
 21
0.9885258808747938
 31
0.0
  0
ARC
  5
8B
100
AcDbEntity
  8
mainlayer
 62
256
370
1
 48
1.0
  6
BYLAYER
100
AcDbCircle
 10
0.0
 20
0.0
 30
0.0
 40
1.125
100
AcDbArc
 50
118.5152989405692949
 51
126.0
  0
LINE
  5
8C
100
AcDbEntity
100
AcDbLine
  8
mainlayer
 62
256
370
1
 48
2.0
  6
BYLAYER
 10
0.0000000000000001
 20
1.125
 30
0.0
 11
0.0000000000000001
 21
1.1746157759823856
 31
0.0
  0
LWPOLYLINE
  5
8D
  8
mainlayer
 62
256
370
1
 48
2.0
  6
BYLAYER
100
AcDbEntity
100
AcDbPolyline
 90
13
 70
0
 10
0.0000000000000001
 20
1.1746157759823856
 30
0.0
 10
-0.00005104333749
 20
1.1761250590584578
 30
0.0
 10
-0.0004080317462532
 20
1.180641265818166
 30
0.0
 10
-0.0013753368305787
 20
1.1881295187441205
 30
0.0
 10
-0.0032541893291429
 20
1.1985318547548964
 30
0.0
 10
-0.006341123832288
 20
1.2117674737484811
 30
0.0
 10
-0.0109264416212224
 20
1.2277330853094757
 30
0.0
 10
-0.0172926975730163
 20
1.246303352331378
 30
0.0
 10
-0.0257132169927246
 20
1.2673314299556317
 30
0.0
 10
-0.0364506481312865
 20
1.2906495978847208
 30
0.0
 10
-0.0497555560253678
 20
1.3160699837886403
 30
0.0
 10
-0.0658650631534099
 20
1.3433853751936666
 30
0.0
 10
-0.0850015422412905
 20
1.3723701169205784
 30
0.0
  0
ARC
  5
8E
100
AcDbEntity
  8
mainlayer
 62
256
370
1
 48
1.0
  6
BYLAYER
100
AcDbCircle
 10
0.0
 20
0.0
 30
0.0
 40
1.375
100
AcDbArc
 50
93.5442450925663422
 51
96.9710538480029385
  0
LWPOLYLINE
  5
8F
  8
mainlayer
 62
256
370
1
 48
2.0
  6
BYLAYER
100
AcDbEntity
100
AcDbPolyline
 90
13
 70
0
 10
-0.1668808459205091
 20
1.3648354418261768
 30
0.0
 10
-0.1804062917763596
 20
1.3328450932932658
 30
0.0
 10
-0.1912602531990573
 20
1.3030484768921906
 30
0.0
 10
-0.1997025500676744
 20
1.2756268756049516
 30
0.0
 10
-0.2060041385515763
 20
1.2507407476296293
 30
0.0
 10
-0.2104456620880891
 20
1.2285290825739894
 30
0.0
 10
-0.2133159666989516
 20
1.2091088512790393
 30
0.0
 10
-0.214910586424632
 20
1.1925745511827985
 30
0.0
 10
-0.2155302047550182
 20
1.1789978487888184
 30
0.0
 10
-0.2154790980142132
 20
1.1684273204532294
 30
0.0
 10
-0.2150635667159188
 20
1.1608882923494639
 30
0.0
 10
-0.2145903609439942
 20
1.1563827801124547
 30
0.0
 10
-0.2143651058301239
 20
1.1548895283052583
 30
0.0
  0
LINE
  5
90
100
AcDbEntity
100
AcDbLine
  8
mainlayer
 62
256
370
1
 48
2.0
  6
BYLAYER
 10
-0.2143651058301239
 20
1.1548895283052583
 30
0.0
 11
-0.2053103227369779
 21
1.1061069891188817
 31
0.0
  0
ARC
  5
91
100
AcDbEntity
  8
mainlayer
 62
256
370
1
 48
1.0
  6
BYLAYER
100
AcDbCircle
 10
0.0
 20
0.0
 30
0.0
 40
1.125
100
AcDbArc
 50
100.5152989405692807
 51
108.0
  0
LINE
  5
92
100
AcDbEntity
100
AcDbLine
  8
mainlayer
 62
256
370
1
 48
2.0
  6
BYLAYER
 10
0.3476441186718159
 20
1.0699385808320476
 30
0.0
 11
0.3629762366394734
 21
1.1171259878911362
 31
0.0
  0
LWPOLYLINE
  5
93
  8
mainlayer
 62
256
370
1
 48
2.0
  6
BYLAYER
100
AcDbEntity
100
AcDbPolyline
 90
13
 70
0
 10
0.3629762366394734
 20
1.1171259878911362
 30
0.0
 10
0.3633940856605687
 20
1.1185771746543025
 30
0.0
 10
0.3644501541470336
 20
1.122982658007162
 30
0.0
 10
0.3658441897556383
 20
1.1304033234578592
 30
0.0
 10
0.3672717934522496
 20
1.1408771302575795
 30
0.0
 10
0.3684259754777466
 20
1.1544188671706224
 30
0.0
 10
0.3689987244132329
 20
1.171020007203734
 30
0.0
 10
0.368682583305725
 20
1.1906486619439001
 30
0.0
 10
0.3671722267859515
 20
1.213249635795761
 30
0.0
 10
0.3641660331011292
 20
1.2387445800505323
 30
0.0
 10
0.3593676449976367
 20
1.2670322463590569
 30
0.0
 10
0.3524875134213656
 20
1.2979888388235292
 30
0.0
 10
0.3432444180570752
 20
1.3314684635666967
 30
0.0
  0
ARC
  5
94
100
AcDbEntity
  8
mainlayer
 62
256
370
1
 48
1.0
  6
BYLAYER
100
AcDbCircle
 10
0.0
 20
0.0
 30
0.0
 40
1.375
100
AcDbArc
 50
75.5442450925663422
 51
78.9710538480029385
  0
LWPOLYLINE
  5
95
  8
mainlayer
 62
256
370
1
 48
2.0
  6
BYLAYER
100
AcDbEntity
100
AcDbPolyline
 90
13
 70
0
 10
0.2630442300919809
 20
1.3496046580444647
 30
0.0
 10
0.2402952053223298
 20
1.3233596212396428
 30
0.0
 10
0.2207648137408534
 20
1.2983754135837569
 30
0.0
 10
0.2042619714807262
 20
1.2749047341962416
 30
0.0
 10
0.1905785682215363
 20
1.2531839179530395
 30
0.0
 10
0.1794906463443007
 20
1.2334318754178064
 30
0.0
 10
0.1707596429355561
 20
1.2158491108005745
 30
0.0
 10
0.1641336897346012
 20
1.2006168215464659
 30
0.0
 10
0.1593489659165606
 20
1.1878960828589866
 30
0.0
 10
0.1561310984202108
 20
1.1778271201533062
 30
0.0
 10
0.1541966043640444
 20
1.1705286721158201
 30
0.0
 10
0.1532543699473818
 20
1.1660974467182039
 30
0.0
 10
0.1530071601059521
 20
1.1646076721982446
 30
0.0
  0
LINE
  5
96
100
AcDbEntity
100
AcDbLine
  8
mainlayer
 62
256
370
1
 48
2.0
  6
BYLAYER
 10
0.1530071601059521
 20
1.1646076721982446
 30
0.0
 11
0.1465441369329756
 21
1.1154146385674564
 31
0.0
  0
ARC
  5
97
100
AcDbEntity
  8
mainlayer
 62
256
370
1
 48
1.0
  6
BYLAYER
100
AcDbCircle
 10
0.0
 20
0.0
 30
0.0
 40
1.125
100
AcDbArc
 50
82.5152989405692949
 51
90.0
  0
LINE
  5
98
100
AcDbEntity
100
AcDbLine
  8
mainlayer
 62
256
370
1
 48
2.0
  6
BYLAYER
 10
0.6612584088290323
 20
0.9101441186718159
 30
0.0
 11
0.6904218302325257
 21
0.9502841246306662
 31
0.0
  0
LWPOLYLINE
  5
99
  8
mainlayer
 62
256
370
1
 48
2.0
  6
BYLAYER
100
AcDbEntity
100
AcDbPolyline
 90
13
 70
0
 10
0.6904218302325257
 20
0.9502841246306662
 30
0.0
 10
0.6912676696386965
 20
0.9515351628095355
 30
0.0
 10
0.6936334196788722
 20
0.9553986833501609
 30
0.0
 10
0.6972523380622196
 20
0.9620253748884701
 30
0.0
 10
0.7018466541574824
 20
0.9715454032922751
 30
0.0
 10
0.7071289733333068
 20
0.9840676985648985
 30
0.0
 10
0.7128037243368318
 20
0.9996793318167422
 30
0.0
 10
0.7185686441678975
 20
1.0184449847883255
 30
0.0
 10
0.7241162947674868
 20
1.0404065140769292
 30
0.0
 10
0.7291356057196574
 20
1.0655826118800038
 30
0.0
 10
0.7333134370666595
 20
1.0939685647230946
 30
0.0
 10
0.7363361562575402
 20
1.1255361112893281
 30
0.0
 10
0.737891223191529
 20
1.1602334001126278
 30
0.0
  0
ARC
  5
9A
100
AcDbEntity
  8
mainlayer
 62
256
370
1
 48
1.0
  6
BYLAYER
100
AcDbCircle
 10
0.0
 20
0.0
 30
0.0
 40
1.375
100
AcDbArc
 50
57.5442450925663422
 51
60.9710538480029527
  0
LWPOLYLINE
  5
9B
  8
mainlayer
 62
256
370
1
 48
2.0
  6
BYLAYER
100
AcDbEntity
100
AcDbPolyline
 90
13
 70
0
 10
0.6672207041261493
 20
1.2022651670847848
 30
0.0
 10
0.6374749334889269
 20
1.1843344890704315
 30
0.0
 10
0.6111798825529062
 20
1.1666083184803036
 30
0.0
 10
0.5882319080837533
 20
1.1493860346208011
 30
0.0
 10
0.5685061168981616
 20
1.1329567149414295
 30
0.0
 10
0.5518571597276412
 20
1.1175977624705244
 30
0.0
 10
0.5381201089671402
 20
1.1035735880380697
 30
0.0
 10
0.527111416755951
 20
1.0911343522278854
 30
0.0
 10
0.5186299495546969
 20
1.0805147717802355
 30
0.0
 10
0.5124580951119362
 20
1.0719329949286842
 30
0.0
 10
0.5083629374579393
 20
1.065589549902664
 30
0.0
 10
0.5060974953223253
 20
1.0616663705605225
 30
0.0
 10
0.5054020191472872
 20
1.060325902837683
 30
0.0
  0
LINE
  5
9C
100
AcDbEntity
100
AcDbLine
  8
mainlayer
 62
256
370
1
 48
2.0
  6
BYLAYER
 10
0.5054020191472872
 20
1.060325902837683
 30
0.0
 11
0.4840538354468893
 21
1.015537731642284
 31
0.0
  0
ARC
  5
9D
100
AcDbEntity
  8
mainlayer
 62
256
370
1
 48
1.0
  6
BYLAYER
100
AcDbCircle
 10
0.0
 20
0.0
 30
0.0
 40
1.125
100
AcDbArc
 50
64.5152989405692949
 51
72.0
  0
LINE
  5
9E
100
AcDbEntity
100
AcDbLine
  8
mainlayer
 62
256
370
1
 48
2.0
  6
BYLAYER
 10
0.9101441186718159
 20
0.6612584088290323
 30
0.0
 11
0.9502841246306662
 21
0.6904218302325257
 31
0.0
  0
LWPOLYLINE
  5
9F
  8
mainlayer
 62
256
370
1
 48
2.0
  6
BYLAYER
100
AcDbEntity
100
AcDbPolyline
 90
13
 70
0
 10
0.9502841246306662
 20
0.6904218302325257
 30
0.0
 10
0.9514751577675266
 20
0.6913502594936546
 30
0.0
 10
0.9549190132643313
 20
0.6942936289127989
 30
0.0
 10
0.9604085694765724
 20
0.6994776798000756
 30
0.0
 10
0.9677198743005996
 20
0.7071120430978628
 30
0.0
 10
0.97661326042174
 20
0.7173891272208208
 30
0.0
 10
0.9868345293267636
 20
0.7304830782560613
 30
0.0
 10
0.9981161995767798
 20
0.7465488165982107
 30
0.0
 10
1.0101788146022896
 20
0.7657211538218167
 30
0.0
 10
1.0227323050638588
 20
0.7881139933080419
 30
0.0
 10
1.0354774006204484
 20
0.8138196178448543
 30
0.0
 10
1.0481070857635546
 20
0.8429080671109158
 30
0.0
 10
1.0603080942095353
 20
0.8754266076340972
 30
0.0
  0
ARC
  5
A0
100
AcDbEntity
  8
mainlayer
 62
256
370
1
 48
1.0
  6
BYLAYER
100
AcDbCircle
 10
0.0
 20
0.0
 30
0.0
 40
1.375
100
AcDbArc
 50
39.5442450925663493
 51
42.9710538480029456
  0
LWPOLYLINE
  5
A1
  8
mainlayer
 62
256
370
1
 48
2.0
  6
BYLAYER
100
AcDbEntity
100
AcDbPolyline
 90
13
 70
0
 10
1.006084966840449
 20
0.9372395848968673
 30
0.0
 10
0.9722541736165972
 20
0.9293784453674074
 30
0.0
 10
0.9417684061200431
 20
0.9206454729258919
 30
0.0
 10
0.9146216070708446
 20
0.9113574217332783
 30
0.0
 10
0.8907843258377656
 20
0.9018278148977548
 30
0.0
 10
0.8702040493019164
 20
0.8923653937711447
 30
0.0
 10
0.8528056294297576
 20
0.8832725934290847
 30
0.0
 10
0.8384918057040339
 20
0.8748440501331773
 30
0.0
 10
0.8271438202230819
 20
0.8673651464505405
 30
0.0
 10
0.8186221229486063
 20
0.8611105995641033
 30
0.0
 10
0.812767164260593
 20
0.8563430981460767
 30
0.0
 10
0.8094002716665253
 20
0.853311992987816
 30
0.0
 10
0.8083246072115587
 20
0.8522520463823959
 30
0.0
  0
LINE
  5
A2
100
AcDbEntity
100
AcDbLine
  8
mainlayer
 62
256
370
1
 48
2.0
  6
BYLAYER
 10
0.8083246072115587
 20
0.8522520463823959
 30
0.0
 11
0.7741809719458767
 21
0.8162529158765301
 31
0.0
  0
ARC
  5
A3
100
AcDbEntity
  8
mainlayer
 62
256
370
1
 48
1.0
  6
BYLAYER
100
AcDbCircle
 10
0.0
 20
0.0
 30
0.0
 40
1.125
100
AcDbArc
 50
46.5152989405692949
 51
54.0
  0
LINE
  5
A4
100
AcDbEntity
100
AcDbLine
  8
mainlayer
 62
256
370
1
 48
2.0
  6
BYLAYER
 10
1.0699385808320476
 20
0.3476441186718158
 30
0.0
 11
1.1171259878911362
 21
0.3629762366394733
 31
0.0
  0
LWPOLYLINE
  5
A5
  8
mainlayer
 62
256
370
1
 48
2.0
  6
BYLAYER
100
AcDbEntity
100
AcDbPolyline
 90
13
 70
0
 10
1.1171259878911362
 20
0.3629762366394733
 30
0.0
 10
1.1185456281368344
 20
0.3634911758580355
 30
0.0
 10
1.1227304805194884
 20
0.3652262766492924
 30
0.0
 10
1.1295533185505822
 20
0.3684602358652835
 30
0.0
 10
1.1388659306463418
 20
0.3734616293857286
 30
0.0
 10
1.1504998371153963
 20
0.3804875097604107
 30
0.0
 10
1.164267094905727
 20
0.3897820514207972
 30
0.0
 10
1.1799611870866031
 20
0.4015752487280021
 30
0.0
 10
1.1973579937341559
 20
0.4160816719376355
 30
0.0
 10
1.2162168405934344
 20
0.4334992859580127
 30
0.0
 10
1.2362816216062298
 20
0.4540083365572661
 30
0.0
 10
1.2572819911235633
 20
0.4777703084378502
 30
0.0
 10
1.2789346213654191
 20
0.5049269593445095
 30
0.0
  0
ARC
  5
A6
100
AcDbEntity
  8
mainlayer
 62
256
370
1
 48
1.0
  6
BYLAYER
100
AcDbCircle
 10
0.0
 20
0.0
 30
0.0
 40
1.375
100
AcDbArc
 50
21.5442450925663458
 51
24.9710538480029456
  0
LWPOLYLINE
  5
A7
  8
mainlayer
 62
256
370
1
 48
2.0
  6
BYLAYER
100
AcDbEntity
100
AcDbPolyline
 90
13
 70
0
 10
1.2464666231942558
 20
0.5804704620070762
 30
0.0
 10
1.2118624011375219
 20
0.583448364071433
 30
0.0
 10
1.1801700764098284
 20
0.5845634339673024
 30
0.0
 10
1.1514817706143912
 20
0.5841187946059679
 30
0.0
 10
1.1258663585050226
 20
0.582421724928029
 30
0.0
 10
1.1033693034623921
 20
0.5797820828541509
 30
0.0
 10
1.0840125930375817
 20
0.5765107232532319
 30
0.0
 10
1.0677947745938716
 20
0.5729179170145193
 30
0.0
 10
1.054691090718161
 20
0.5693117772979382
 30
0.0
 10
1.0446537137153524
 20
0.5659966990038501
 30
0.0
 10
1.0376120781436018
 20
0.5632718174497487
 30
0.0
 10
1.0334733099967075
 20
0.5614294921672112
 30
0.0
 10
1.0321227507932595
 20
0.5607538216380312
 30
0.0
  0
LINE
  5
A8
100
AcDbEntity
100
AcDbLine
  8
mainlayer
 62
256
370
1
 48
2.0
  6
BYLAYER
 10
1.0321227507932595
 20
0.5607538216380312
 30
0.0
 11
0.9885258808747935
 21
0.5370675775363034
 31
0.0
  0
ARC
  5
A9
100
AcDbEntity
  8
mainlayer
 62
256
370
1
 48
1.0
  6
BYLAYER
100
AcDbCircle
 10
0.0
 20
0.0
 30
0.0
 40
1.125
100
AcDbArc
 50
28.5152989405692878
 51
36.0
  0
LINE
  5
AA
100
AcDbEntity
100
AcDbLine
  8
mainlayer
 62
256
370
1
 48
2.0
  6
BYLAYER
 10
1.125
 20
0.0
 30
0.0
 11
1.1746157759823856
 21
0.0
 31
0.0
  0
LWPOLYLINE
  5
AB
  8
mainlayer
 62
256
370
1
 48
2.0
  6
BYLAYER
100
AcDbEntity
100
AcDbPolyline
 90
13
 70
0
 10
1.1746157759823856
 20
0.0
 30
0.0
 10
1.1761250590584578
 20
0.0000510433374901
 30
0.0
 10
1.180641265818166
 20
0.0004080317462533
 30
0.0
 10
1.1881295187441205
 20
0.0013753368305787
 30
0.0
 10
1.1985318547548964
 20
0.0032541893291429
 30
0.0
 10
1.2117674737484811
 20
0.006341123832288
 30
0.0
 10
1.2277330853094757
 20
0.0109264416212225
 30
0.0
 10
1.246303352331378
 20
0.0172926975730164
 30
0.0
 10
1.2673314299556317
 20
0.0257132169927246
 30
0.0
 10
1.2906495978847208
 20
0.0364506481312865
 30
0.0
 10
1.3160699837886403
 20
0.0497555560253679
 30
0.0
 10
1.3433853751936666
 20
0.06586506315341
 30
0.0
 10
1.3723701169205784
 20
0.0850015422412906
 30
0.0
  0
ARC
  5
AC
100
AcDbEntity
  8
mainlayer
 62
256
370
1
 48
1.0
  6
BYLAYER
100
AcDbCircle
 10
0.0
 20
0.0
 30
0.0
 40
1.375
100
AcDbArc
 50
3.5442450925663458
 51
6.9710538480029456
  0
LWPOLYLINE
  5
AD
  8
mainlayer
 62
256
370
1
 48
2.0
  6
BYLAYER
100
AcDbEntity
100
AcDbPolyline
 90
13
 70
0
 10
1.3648354418261768
 20
0.1668808459205091
 30
0.0
 10
1.3328450932932658
 20
0.1804062917763597
 30
0.0
 10
1.3030484768921906
 20
0.1912602531990574
 30
0.0
 10
1.2756268756049516
 20
0.1997025500676745
 30
0.0
 10
1.2507407476296293
 20
0.2060041385515764
 30
0.0
 10
1.2285290825739894
 20
0.2104456620880892
 30
0.0
 10
1.2091088512790393
 20
0.2133159666989516
 30
0.0
 10
1.1925745511827985
 20
0.214910586424632
 30
0.0
 10
1.1789978487888184
 20
0.2155302047550183
 30
0.0
 10
1.1684273204532294
 20
0.2154790980142133
 30
0.0
 10
1.1608882923494639
 20
0.2150635667159189
 30
0.0
 10
1.1563827801124547
 20
0.2145903609439943
 30
0.0
 10
1.1548895283052583
 20
0.2143651058301239
 30
0.0
  0
LINE
  5
AE
100
AcDbEntity
100
AcDbLine
  8
mainlayer
 62
256
370
1
 48
2.0
  6
BYLAYER
 10
1.1548895283052583
 20
0.2143651058301239
 30
0.0
 11
1.1061069891188817
 21
0.205310322736978
 31
0.0
  0
ARC
  5
AF
100
AcDbEntity
  8
mainlayer
 62
256
370
1
 48
1.0
  6
BYLAYER
100
AcDbCircle
 10
0.0
 20
0.0
 30
0.0
 40
1.125
100
AcDbArc
 50
10.5152989405692878
 51
18.0
  0
ARC
  5
B0
100
AcDbEntity
  8
mainlayer
 62
256
370
1
 48
1.0
  6
BYLAYER
100
AcDbCircle
 10
0.0
 20
0.0
 30
0.0
 40
0.25
100
AcDbArc
 50
90.0
 51
90.0
  0
ENDSEC
  0
SECTION
  2
OBJECTS
  0
DICTIONARY
  5
C
100
AcDbDictionary
280
0
281
1
  3
ACAD_GROUP
350
D
  3
ACAD_LAYOUT
350
1A
  3
ACAD_MLINESTYLE
350
17
  3
ACAD_PLOTSETTINGS
350
19
  3
ACAD_PLOTSTYLENAME
350
E
  3
AcDbVariableDictionary
350
B1
  0
DICTIONARY
  5
D
100
AcDbDictionary
280
0
281
1
  0
ACDBDICTIONARYWDFLT
  5
E
100
AcDbDictionary
281
1
  3
Normal
350
F
100
AcDbDictionaryWithDefault
340
F
  0
ACDBPLACEHOLDER
  5
F
  0
DICTIONARY
  5
17
100
AcDbDictionary
280
0
281
1
  3
Standard
350
18
  0
MLINESTYLE
  5
18
100
AcDbMlineStyle
  2
STANDARD
 70
0
  3

 62
256
 51
90.0
 52
90.0
 71
2
 49
0.5
 62
256
  6
BYLAYER
 49
-0.5
 62
256
  6
BYLAYER
  0
DICTIONARY
  5
19
100
AcDbDictionary
280
0
281
1
  0
DICTIONARY
  5
1A
100
AcDbDictionary
281
1
  3
Layout1
350
1E
  3
Layout2
350
26
  3
Model
350
22
  0
LAYOUT
  5
1E
100
AcDbPlotSettings
  1

  2
none_device
  4

  6

 40
0.0
 41
0.0
 42
0.0
 43
0.0
 44
0.0
 45
0.0
 46
0.0
 47
0.0
 48
0.0
 49
0.0
140
0.0
141
0.0
142
1.0
143
1.0
 70
688
 72
0
 73
0
 74
5
  7

 75
16
147
1.0
148
0.0
149
0.0
100
AcDbLayout
  1
Layout1
 70
1
 71
1
 10
0.0
 20
0.0
 11
420.0
 21
297.0
 12
0.0
 22
0.0
 32
0.0
 14
100000000000000000000.0
 24
100000000000000000000.0
 34
100000000000000000000.0
 15
-100000000000000000000.0
 25
-100000000000000000000.0
 35
-100000000000000000000.0
146
0.0
 13
0.0
 23
0.0
 33
0.0
 16
1.0
 26
0.0
 36
0.0
 17
0.0
 27
1.0
 37
0.0
 76
0
330
1B
  0
LAYOUT
  5
22
100
AcDbPlotSettings
  1

  2
none_device
  4

  6

 40
0.0
 41
0.0
 42
0.0
 43
0.0
 44
0.0
 45
0.0
 46
0.0
 47
0.0
 48
0.0
 49
0.0
140
0.0
141
0.0
142
1.0
143
1.0
 70
1712
 72
0
 73
0
 74
0
  7

 75
0
147
1.0
148
0.0
149
0.0
100
AcDbLayout
  1
Model
 70
1
 71
0
 10
0.0
 20
0.0
 11
12.0
 21
9.0
 12
0.0
 22
0.0
 32
0.0
 14
0.0
 24
0.0
 34
0.0
 15
0.0
 25
0.0
 35
0.0
146
0.0
 13
0.0
 23
0.0
 33
0.0
 16
1.0
 26
0.0
 36
0.0
 17
0.0
 27
1.0
 37
0.0
 76
0
330
1F
  0
LAYOUT
  5
26
100
AcDbPlotSettings
  1

  2
none_device
  4

  6

 40
0.0
 41
0.0
 42
0.0
 43
0.0
 44
0.0
 45
0.0
 46
0.0
 47
0.0
 48
0.0
 49
0.0
140
0.0
141
0.0
142
1.0
143
1.0
 70
688
 72
0
 73
0
 74
5
  7

 75
16
147
1.0
148
0.0
149
0.0
100
AcDbLayout
  1
Layout2
 70
1
 71
2
 10
0.0
 20
0.0
 11
12.0
 21
9.0
 12
0.0
 22
0.0
 32
0.0
 14
0.0
 24
0.0
 34
0.0
 15
0.0
 25
0.0
 35
0.0
146
0.0
 13
0.0
 23
0.0
 33
0.0
 16
1.0
 26
0.0
 36
0.0
 17
0.0
 27
1.0
 37
0.0
 76
0
330
23
  0
DICTIONARY
  5
B1
100
AcDbDictionary
281
1
  3
DIMASSOC
350
B3
  3
HIDETEXT
350
B2
  0
DICTIONARYVAR
  5
B2
100
DictionaryVariables
280
0
  1
2
  0
DICTIONARYVAR
  5
B3
100
DictionaryVariables
280
0
  1
1
  0
ENDSEC
  0
EOF
